<svg width="50" height="51" viewBox="0 0 50 51" fill="none" xmlns="http://www.w3.org/2000/svg">
<path d="M1.5625 15.6761V45.3196C1.5625 46.0703 2.17187 46.681 2.921 46.681H30.4836C34.7116 46.681 37.3287 43.0432 37.3287 39.6727C37.3287 39.5521 37.3566 39.4332 37.4102 39.3252C37.4638 39.2172 37.5417 39.1231 37.6377 39.0503C37.7337 38.9774 37.8453 38.9277 37.9638 38.9052C38.0822 38.8826 38.2042 38.8878 38.3203 38.9202L44.2076 40.5667V15.6761H1.5625Z" fill="#FDFDFD"/>
<path d="M30.9687 38.6429C30.9687 38.8501 30.8864 39.0488 30.7399 39.1953C30.5934 39.3419 30.3947 39.4242 30.1875 39.4242H26.2539C26.0467 39.4242 25.848 39.3419 25.7015 39.1953C25.555 39.0488 25.4727 38.8501 25.4727 38.6429C25.4727 38.4357 25.555 38.237 25.7015 38.0905C25.848 37.944 26.0467 37.8617 26.2539 37.8617H27.5543V25.7246L26.5676 26.8044C26.4986 26.881 26.4151 26.9431 26.322 26.9872C26.2289 27.0314 26.128 27.0566 26.0251 27.0616C25.9222 27.0666 25.8193 27.0512 25.7224 27.0162C25.6255 26.9813 25.5364 26.9275 25.4603 26.858C25.3843 26.7885 25.3227 26.7046 25.2792 26.6112C25.2357 26.5178 25.2111 26.4168 25.2068 26.3138C25.2025 26.2109 25.2186 26.1081 25.2542 26.0114C25.2898 25.9147 25.3441 25.826 25.4142 25.7504L27.7588 23.1843C27.865 23.068 28.0039 22.9865 28.1573 22.9505C28.3107 22.9145 28.4714 22.9258 28.6182 22.9828C28.7651 23.0398 28.8913 23.1398 28.9803 23.2699C29.0693 23.3999 29.1168 23.5537 29.1168 23.7113V37.8616H30.1874C30.3946 37.8616 30.5933 37.9439 30.7398 38.0904C30.8863 38.2369 30.9687 38.4356 30.9687 38.6428L30.9687 38.6429ZM23.4863 27.2741V35.083C23.4863 37.4767 21.5377 39.4242 19.1425 39.4242C16.7487 39.4242 14.8014 37.4767 14.8014 35.083V27.2741C14.8014 24.8788 16.7487 22.9301 19.1425 22.9301C21.5377 22.9301 23.4863 24.8788 23.4863 27.2741ZM21.9238 27.2741C21.9238 25.7404 20.6761 24.4926 19.1425 24.4926C17.6103 24.4926 16.3639 25.7404 16.3639 27.2741V35.083C16.3639 36.6152 17.6104 37.8617 19.1425 37.8617C20.6761 37.8617 21.9238 36.6152 21.9238 35.083V27.2741ZM49.348 43.6098C48.7807 44.2562 47.9261 44.6421 47.0622 44.6421H41.3856L38.0323 46.6311C36.1761 47.7312 34.3088 48.2435 32.1557 48.2435H2.9209C1.31035 48.2435 0 46.932 0 45.3197V9.47211C0 7.86127 1.31035 6.55082 2.9209 6.55082H5.47803V4.68031C5.47803 3.66166 6.54111 2.86371 7.89814 2.86371C9.25518 2.86371 10.3181 3.66156 10.3181 4.68031V6.55092H15.4685V4.68031C15.4685 3.66166 16.5313 2.86371 17.8884 2.86371C19.2454 2.86371 20.3083 3.66156 20.3083 4.68031V6.55092H25.4614V4.68031C25.4614 3.66166 26.5245 2.86371 27.8814 2.86371C29.2385 2.86371 30.3015 3.66156 30.3015 4.68031V6.55092H35.4519V4.68031C35.4519 3.66166 36.5148 2.86371 37.8718 2.86371C39.2287 2.86371 40.2917 3.66156 40.2917 4.68031V6.55092H42.8489C44.4384 6.55092 45.7346 7.82728 45.7685 9.40873L49.9794 41.6199C50.0725 42.3331 49.8482 43.0398 49.3479 43.6098H49.348ZM37.0144 6.55092H38.7293V4.70726C38.6668 4.61547 38.3626 4.42621 37.8719 4.42621C37.3812 4.42621 37.0769 4.61547 37.0145 4.70736V6.55092H37.0144ZM27.0241 6.55092H28.7391V4.70795C28.676 4.61576 28.3715 4.42621 27.8815 4.42621C27.3907 4.42621 27.0866 4.61547 27.024 4.70736L27.0241 6.55092ZM17.031 6.55092H18.746V4.70726C18.6835 4.61547 18.3793 4.42621 17.8886 4.42621C17.3985 4.42621 17.094 4.61576 17.031 4.70795V6.55092ZM7.04072 6.55092H8.75566V4.70736C8.69316 4.61556 8.38896 4.42621 7.89824 4.42621C7.40732 4.42621 7.10313 4.61547 7.04063 4.70736L7.04072 6.55092ZM1.5625 9.47191V14.1135H44.2076V9.47191C44.2076 8.72289 43.5981 8.11351 42.849 8.11351H37.0144V9.32025C37.0769 9.41205 37.3811 9.6014 37.8718 9.6014C38.3034 9.6014 38.653 9.95111 38.653 10.3827C38.653 10.8142 38.3034 11.1639 37.8718 11.1639C36.5148 11.1639 35.4519 10.366 35.4519 9.3473V8.11342H27.024V9.32035C27.0865 9.41215 27.3907 9.6015 27.8814 9.6015C28.3131 9.6015 28.6627 9.95121 28.6627 10.3828C28.6627 10.8143 28.3131 11.164 27.8814 11.164C26.5245 11.164 25.4615 10.3661 25.4615 9.3474V8.11342H17.031V9.31976C17.094 9.41195 17.3985 9.6015 17.8885 9.6015C18.32 9.6015 18.6697 9.95121 18.6697 10.3828C18.6697 10.8143 18.32 11.164 17.8885 11.164C16.5314 11.164 15.4685 10.3661 15.4685 9.3474V8.11342H7.04072V9.32045C7.10322 9.41224 7.40732 9.6015 7.89814 9.6015C8.32969 9.6015 8.67939 9.95121 8.67939 10.3828C8.67939 10.8143 8.32969 11.164 7.89814 11.164C6.54121 11.164 5.47822 10.3661 5.47822 9.3474V8.11342H2.9209C2.17197 8.11342 1.5625 8.72289 1.5625 9.47191ZM37.3287 39.6728C37.3287 39.5522 37.3566 39.4333 37.4102 39.3253C37.4638 39.2174 37.5417 39.1233 37.6377 39.0504C37.7337 38.9775 37.8453 38.9279 37.9638 38.9053C38.0822 38.8827 38.2042 38.8879 38.3203 38.9204L44.2076 40.5668V15.6762H1.5625V45.3198C1.5625 46.0705 2.17187 46.6811 2.921 46.6811H30.4836C34.7116 46.6811 37.3287 43.0433 37.3287 39.6728ZM43.0187 41.8569L38.829 40.6851C38.6142 42.4423 37.8496 44.1519 36.6591 45.492C36.595 45.5642 36.5296 45.6352 36.4631 45.7051C36.726 45.5761 36.9837 45.4367 37.2355 45.2872L43.0187 41.8569ZM48.4301 41.8224L45.7701 21.4751V41.5966H45.7691C45.7693 41.7321 45.7342 41.8654 45.6672 41.9832C45.6003 42.101 45.5038 42.1994 45.3873 42.2686L44.0198 43.0797H47.0621C47.4768 43.0797 47.9027 42.8879 48.1738 42.579C48.3148 42.4185 48.4737 42.1568 48.4301 41.8224Z" fill="#212121"/>
<path d="M45.77 21.475V41.5966H45.7692C45.7694 41.7321 45.7342 41.8653 45.6673 41.9831C45.6003 42.1009 45.5039 42.1993 45.3874 42.2685L44.0198 43.0797H47.0621C47.4768 43.0797 47.9027 42.8879 48.1738 42.579C48.3148 42.4185 48.4737 42.1568 48.4301 41.8224L45.77 21.475Z" fill="#CED4DF"/>
<path d="M44.2075 9.4719C44.2075 8.72288 43.5981 8.1135 42.849 8.1135H37.0144V9.32024C37.0769 9.41204 37.3811 9.60139 37.8718 9.60139C38.3034 9.60139 38.653 9.9511 38.653 10.3826C38.653 10.8142 38.3034 11.1639 37.8718 11.1639C36.5148 11.1639 35.4519 10.3659 35.4519 9.34729V8.1134H27.024V9.32034C27.0865 9.41213 27.3907 9.60149 27.8814 9.60149C28.3131 9.60149 28.6627 9.9512 28.6627 10.3827C28.6627 10.8143 28.3131 11.164 27.8814 11.164C26.5245 11.164 25.4615 10.366 25.4615 9.34739V8.1134H17.031V9.31975C17.094 9.41194 17.3985 9.60149 17.8885 9.60149C18.32 9.60149 18.6697 9.9512 18.6697 10.3827C18.6697 10.8143 18.32 11.164 17.8885 11.164C16.5314 11.164 15.4685 10.366 15.4685 9.34739V8.1134H7.04072V9.32043C7.10322 9.41223 7.40732 9.60149 7.89814 9.60149C8.32969 9.60149 8.67939 9.9512 8.67939 10.3827C8.67939 10.8143 8.32969 11.164 7.89814 11.164C6.54121 11.164 5.47822 10.366 5.47822 9.34739V8.1134H2.9209C2.17197 8.1134 1.5625 8.72288 1.5625 9.4719V14.1135H44.2076L44.2075 9.4719Z" fill="#FF9F02"/>
<path d="M36.6591 45.4919C36.595 45.5641 36.5296 45.6351 36.4631 45.705C36.726 45.576 36.9837 45.4366 37.2356 45.287L43.0188 41.8568L38.829 40.685C38.6142 42.4422 37.8496 44.1518 36.6591 45.4919Z" fill="#E3E6EA"/>
</svg>
