<svg width="50" height="51" viewBox="0 0 50 51" fill="none" xmlns="http://www.w3.org/2000/svg">
<g clip-path="url(#clip0_101_326)">
<path fill-rule="evenodd" clip-rule="evenodd" d="M41.1335 30.5749C45.5805 30.5749 49.2188 26.9366 49.2188 22.4897C49.2188 18.7717 46.6754 15.6196 43.2427 14.6859C42.6101 8.83977 37.6593 4.2885 31.6452 4.2885C30.2634 4.2885 28.9376 4.52874 27.7077 4.96985C25.3823 2.71995 22.2151 1.33508 18.7241 1.33508C11.5877 1.33508 5.80244 7.12043 5.80244 14.2569C5.80244 14.5073 5.81025 14.7559 5.82432 15.0027C2.87373 16.2109 0.78125 19.1173 0.78125 22.4897C0.78125 26.9366 4.41953 30.5749 8.8665 30.5749H41.1335Z" fill="white"/>
<path fill-rule="evenodd" clip-rule="evenodd" d="M28.9383 7.61057C34.9525 7.61057 39.9031 12.1619 40.5359 18.0079C43.9686 18.9417 46.5119 22.0938 46.5119 25.8117C46.5128 26.9323 46.2787 28.0405 45.8246 29.0649C47.8759 27.5947 49.2188 25.1914 49.2188 22.4897C49.2188 18.7717 46.6754 15.6196 43.2427 14.6859C42.6101 8.83977 37.6593 4.2885 31.6452 4.2885C30.2634 4.2885 28.9376 4.52874 27.7077 4.96985C25.3823 2.71995 22.2151 1.33508 18.7241 1.33508C13.9098 1.33508 9.71027 3.96799 7.48712 7.87258C9.7629 5.87102 12.7484 4.65715 16.0172 4.65715C19.5082 4.65715 22.6754 6.04202 25.0008 8.29192C26.2308 7.85081 27.5565 7.61057 28.9383 7.61057Z" fill="white"/>
<path fill-rule="evenodd" clip-rule="evenodd" d="M36.3657 19.6606C37.1787 19.6606 37.8418 20.3237 37.8418 21.1367V48.2964C37.8418 49.1094 37.1787 49.7725 36.3657 49.7725H13.6343C12.8213 49.7725 12.1582 49.1094 12.1582 48.2964V21.1367C12.1582 20.3237 12.8213 19.6606 13.6343 19.6606H36.3657Z" fill="white"/>
<path fill-rule="evenodd" clip-rule="evenodd" d="M36.3657 19.6606C37.1787 19.6606 37.8418 20.3237 37.8418 21.1367V48.2964C37.8418 49.1094 37.1787 49.7725 36.3657 49.7725H25V19.6606H36.3657Z" fill="#E3E3E5"/>
<path fill-rule="evenodd" clip-rule="evenodd" d="M19.6594 17.7418H22.5608C22.8263 16.6409 23.8175 15.8228 25 15.8228C26.1824 15.8228 27.1737 16.6408 27.4393 17.7418H30.3406C30.4314 17.7419 30.5183 17.778 30.5825 17.8422C30.6466 17.9064 30.6827 17.9933 30.6828 18.084V21.2374C30.6827 21.3281 30.6466 21.415 30.5824 21.4792C30.5183 21.5433 30.4313 21.5794 30.3406 21.5796H19.6594C19.5687 21.5794 19.4817 21.5433 19.4176 21.4792C19.3535 21.415 19.3174 21.3281 19.3172 21.2374V18.084C19.3173 17.9933 19.3534 17.9064 19.4176 17.8422C19.4817 17.778 19.5687 17.7419 19.6594 17.7418Z" fill="#FF9F02"/>
<path fill-rule="evenodd" clip-rule="evenodd" d="M25 15.8229C26.1824 15.8229 27.1737 16.6408 27.4393 17.7417H30.3406C30.4313 17.7419 30.5183 17.778 30.5825 17.8422C30.6466 17.9063 30.6827 17.9933 30.6828 18.084V21.2373C30.6827 21.328 30.6466 21.415 30.5824 21.4791C30.5183 21.5433 30.4313 21.5794 30.3406 21.5795H25V15.8229Z" fill="#FF9F02"/>
<path fill-rule="evenodd" clip-rule="evenodd" d="M33.5331 44.6048C33.5331 45.0365 33.1835 45.3856 32.7519 45.3856H17.248C16.8163 45.3856 16.4667 45.0364 16.4667 44.6048C16.4666 44.5022 16.4868 44.4005 16.526 44.3057C16.5652 44.2108 16.6228 44.1246 16.6953 44.052C16.7679 43.9794 16.854 43.9219 16.9489 43.8826C17.0437 43.8433 17.1453 43.8231 17.248 43.8231H32.7518C32.8544 43.8231 32.9561 43.8433 33.0509 43.8826C33.1457 43.9219 33.2319 43.9794 33.3044 44.052C33.377 44.1246 33.4345 44.2108 33.4738 44.3057C33.513 44.4005 33.5332 44.5022 33.5331 44.6048ZM33.5331 40.0352C33.5331 40.4668 33.1835 40.8164 32.7519 40.8164H17.248C16.8163 40.8164 16.4667 40.4668 16.4667 40.0352C16.4667 39.6036 16.8163 39.2539 17.248 39.2539H32.7518C32.8544 39.2539 32.956 39.2741 33.0508 39.3133C33.1456 39.3525 33.2318 39.4101 33.3044 39.4826C33.3769 39.5552 33.4345 39.6413 33.4737 39.7362C33.513 39.831 33.5332 39.9326 33.5331 40.0352ZM33.5331 35.4668C33.5331 35.8975 33.1835 36.2481 32.7519 36.2481H17.248C16.8163 36.2481 16.4667 35.8975 16.4667 35.4668C16.4667 35.0352 16.8163 34.6856 17.248 34.6856H32.7518C33.1834 34.6856 33.5331 35.0352 33.5331 35.4668ZM33.5331 30.8976C33.5331 31.3292 33.1835 31.6788 32.7519 31.6788H17.248C16.8163 31.6788 16.4667 31.3291 16.4667 30.8976C16.4667 30.466 16.8163 30.1163 17.248 30.1163H32.7518C33.1834 30.1163 33.5331 30.466 33.5331 30.8976ZM33.5331 26.3292C33.5331 26.7599 33.1835 27.1105 32.7519 27.1105H17.248C16.8163 27.1105 16.4667 26.7599 16.4667 26.3292C16.4667 25.8976 16.8163 25.548 17.248 25.548H32.7518C33.1834 25.548 33.5331 25.8976 33.5331 26.3292ZM19.5047 6.21801C19.5047 6.64965 19.1551 6.99926 18.7235 6.99926C14.7218 6.99926 11.4668 10.2552 11.4668 14.2569C11.4668 14.6885 11.1162 15.0381 10.6856 15.0381C10.2539 15.0381 9.90431 14.6885 9.90431 14.2569C9.90431 9.39369 13.8604 5.43676 18.7236 5.43676C18.8261 5.43674 18.9277 5.45694 19.0225 5.4962C19.1173 5.53546 19.2034 5.59301 19.276 5.66556C19.3485 5.73811 19.4061 5.82424 19.4453 5.91903C19.4845 6.01382 19.5047 6.11541 19.5047 6.21801ZM41.1339 29.7939C45.161 29.7939 48.4376 26.5177 48.4376 22.4893C48.4376 19.2035 46.2168 16.305 43.0383 15.4394C42.8865 15.3984 42.7506 15.3126 42.6484 15.193C42.5463 15.0735 42.4826 14.9259 42.4657 14.7696C41.8674 9.24037 37.2156 5.06957 31.6454 5.06957C30.3837 5.06957 29.1478 5.28334 27.9717 5.70531C27.8343 5.7546 27.6858 5.76442 27.5431 5.73364C27.4003 5.70287 27.2691 5.63273 27.1642 5.53119C24.8886 3.32924 21.8906 2.11635 18.7236 2.11635C12.0293 2.11635 6.5839 7.56263 6.5839 14.2569C6.5839 14.4826 6.59084 14.718 6.60461 14.958C6.6136 15.1205 6.57177 15.2816 6.48493 15.4192C6.39808 15.5567 6.27054 15.6638 6.12004 15.7255C3.35148 16.8596 1.56281 19.5149 1.56281 22.4893C1.56281 26.5177 4.83898 29.7939 8.86652 29.7939H11.3771V21.1359C11.3771 19.8916 12.3896 18.8791 13.6338 18.8791H18.5362V17.7413C18.5362 17.3097 18.8858 16.9601 19.3174 16.9601H22.0067C22.5332 15.8048 23.6895 15.0414 25 15.0414C26.3106 15.0414 27.4668 15.8047 27.9934 16.9601H30.6826C31.1143 16.9601 31.4639 17.3098 31.4639 17.7413V18.8791H36.3662C37.6105 18.8791 38.623 19.8916 38.623 21.1359V29.7939H41.1339ZM20.0986 20.7977V18.5225H22.5603C22.7356 18.5226 22.9059 18.4638 23.0438 18.3554C23.1816 18.247 23.279 18.0955 23.3203 17.925C23.5078 17.1465 24.1979 16.6034 24.9999 16.6034C25.802 16.6034 26.4924 17.1465 26.6799 17.925C26.7211 18.0955 26.8184 18.2471 26.9562 18.3554C27.094 18.4638 27.2643 18.5227 27.4396 18.5225H29.9013V20.7977H20.0986ZM37.0604 48.296V21.1359C37.0602 20.9518 36.987 20.7754 36.8568 20.6452C36.7267 20.5151 36.5502 20.4418 36.3661 20.4416H31.4638V21.5794C31.4638 21.682 31.4435 21.7836 31.4043 21.8783C31.365 21.9731 31.3074 22.0592 31.2349 22.1317C31.1623 22.2042 31.0762 22.2617 30.9814 22.3009C30.8867 22.3401 30.7851 22.3603 30.6825 22.3603H19.3173C18.8857 22.3603 18.5361 22.0106 18.5361 21.5794V20.4416H13.6337C13.4496 20.4418 13.2732 20.5151 13.143 20.6452C13.0129 20.7754 12.9397 20.9518 12.9395 21.1359V48.2961C12.9395 48.6798 13.2509 48.9912 13.6337 48.9912H36.3661C36.7489 48.9912 37.0604 48.6798 37.0604 48.296ZM43.9522 14.085C43.5251 11.252 42.1289 8.65111 39.9855 6.71498C37.6951 4.64662 34.7331 3.50697 31.6453 3.50697C30.3652 3.50697 29.1071 3.69994 27.9002 4.0809C25.3777 1.80297 22.1374 0.55365 18.7235 0.55365C11.1678 0.55365 5.02131 6.70111 5.02131 14.2568C5.02131 14.3378 5.02131 14.4207 5.02316 14.5041C1.95422 15.9843 -0.000274658 19.0615 -0.000274658 22.4892C-0.000274658 27.379 3.97746 31.3564 8.86642 31.3564H11.377V48.296C11.377 49.5411 12.3895 50.5537 13.6337 50.5537H36.3661C37.6104 50.5537 38.6229 49.5412 38.6229 48.296V31.3564H41.1339C46.0224 31.3564 50.0001 27.379 50.0001 22.4892C50.0001 18.6769 47.5389 15.2929 43.9522 14.085Z" fill="black"/>
</g>
<defs>
<clipPath id="clip0_101_326">
<rect width="50" height="50" fill="white" transform="translate(0 0.55365)"/>
</clipPath>
</defs>
</svg>
