<svg width="71" height="71" viewBox="0 0 71 71" fill="none" xmlns="http://www.w3.org/2000/svg">
    <path d="M21.2089 1V3.47345C21.2089 4.8168 22.5014 5.9058 24.0959 5.9058H27.6691C29.2635 5.9058 30.5561 4.8168 30.5561 3.47345V1" stroke="white" stroke-width="2" stroke-miterlimit="10" stroke-linecap="round" stroke-linejoin="round"/>
    <path d="M1.00066 46.1888V4.99978C1.00066 2.79095 3.12638 1 5.74811 1H46.0166C48.64 1 50.7657 2.79095 50.7657 4.99978V11.543M50.7657 45.0364V66.0002C50.7657 68.2091 48.64 70 46.0166 70H5.74811C3.12638 70 1.00066 68.2091 1.00066 66.0002V51.0479M50.765 65.0942H1" stroke="white" stroke-width="2" stroke-miterlimit="10" stroke-linecap="round" stroke-linejoin="round"/>
    <path d="M12.6455 22.745C12.8835 21.5092 11.8874 20.3448 10.4205 20.1442C8.95363 19.9437 7.5715 20.7829 7.33343 22.0186C7.09537 23.2544 8.09151 24.4188 9.55839 24.6194C11.0253 24.82 12.4074 23.9808 12.6455 22.745Z" stroke="white" stroke-width="2" stroke-miterlimit="10" stroke-linecap="round" stroke-linejoin="round"/>
    <path d="M12.6457 35.8636C12.8838 34.6278 11.8876 33.4634 10.4207 33.2628C8.95387 33.0622 7.57174 33.9014 7.33368 35.1372C7.09561 36.373 8.09176 37.5374 9.55863 37.7379C11.0255 37.9385 12.4076 37.0993 12.6457 35.8636Z" stroke="white" stroke-width="2" stroke-miterlimit="10" stroke-linecap="round" stroke-linejoin="round"/>
    <path d="M12.6457 48.9818C12.8837 47.7461 11.8876 46.5817 10.4207 46.3811C8.95384 46.1805 7.57171 47.0197 7.33365 48.2555C7.09558 49.4912 8.09173 50.6556 9.5586 50.8562C11.0255 51.0568 12.4076 50.2176 12.6457 48.9818Z" stroke="white" stroke-width="2" stroke-miterlimit="10" stroke-linecap="round" stroke-linejoin="round"/>
    <path d="M56.3802 45.0357H38.5901C38.3991 45.0357 38.2099 45.004 38.0335 44.9424C37.857 44.8808 37.6967 44.7906 37.5616 44.6768L31.7007 39.7398C31.5656 39.626 31.4584 39.4909 31.3853 39.3422C31.3122 39.1935 31.2746 39.0341 31.2746 38.8732V12.7678C31.2746 12.4428 31.4278 12.1311 31.7006 11.9013C31.9734 11.6715 32.3434 11.5424 32.7292 11.5424H62.6846C63.0703 11.5424 63.4403 11.6715 63.713 11.9012L69.5739 16.8383C69.709 16.9521 69.8162 17.0872 69.8893 17.2359C69.9624 17.3846 70 17.5439 70 17.7049V43.8102C70 44.1352 69.8468 44.4469 69.574 44.6767C69.3012 44.9066 68.9312 45.0357 68.5455 45.0357H62.1477M50.5185 20.5976V18.7676" stroke="white" stroke-width="2" stroke-miterlimit="10" stroke-linecap="round" stroke-linejoin="round"/>
    <path d="M53.2457 34.0893C53.5637 34.4724 53.7483 34.9389 53.7483 35.4401C53.7483 36.7493 52.4893 37.81 50.9354 37.81C49.3815 37.81 48.1225 36.7493 48.1225 35.4401C48.1225 34.9389 48.3071 34.4724 48.6251 34.0893M61.2961 30.2788L62.8444 31.5833M61.2961 23.355L62.8444 22.0505M61.7931 26.8169H64.1373M39.9785 30.2788L38.4302 31.5833M39.9785 23.355L38.4302 22.0505M39.4815 26.8169H37.1373M18.5002 48.4962H27.0312L31.81 44.4701M18.5002 35.4998H23.9402M18.5002 22.3816H23.9402M57.9661 34.0891C58.3473 34.0891 58.5692 33.7322 58.3583 33.4648C57.2993 32.1232 56.7342 30.548 56.7339 28.9369V25.8347C56.7339 22.9546 53.9363 20.5425 50.5183 20.5976C47.2062 20.6509 44.5406 22.9299 44.5406 25.7332V28.9369C44.5403 30.548 43.9751 32.1232 42.9162 33.4648C42.7052 33.7322 42.9274 34.0891 43.3083 34.0891H57.9661Z" stroke="white" stroke-width="2" stroke-miterlimit="10" stroke-linecap="round" stroke-linejoin="round"/>
</svg>