<svg width="372" height="372" viewBox="0 0 372 372" fill="none" xmlns="http://www.w3.org/2000/svg">
<path d="M267.077 233.925H320.838V192.454H267.077V233.925Z" fill="#EBEBEB"/>
<path d="M270.912 230.304H277.392V222.983H270.912V230.304Z" fill="white"/>
<path d="M304.437 192.562H298.329V201.408H304.437V192.562Z" fill="#FAFAFA"/>
<path d="M304.437 224.956H298.329V233.802H304.437V224.956Z" fill="#FAFAFA"/>
<path d="M280.495 234.211C280.399 234.211 280.324 225.09 280.324 213.841C280.324 202.591 280.399 193.47 280.495 193.47C280.592 193.47 280.667 202.591 280.667 213.841C280.667 225.09 280.585 234.211 280.495 234.211Z" fill="#E0E0E0"/>
<path d="M245.145 305.338H337.907V233.788H245.145V305.338Z" fill="#EBEBEB"/>
<path d="M251.778 299.093H262.953V286.46H251.778V299.093Z" fill="white"/>
<path d="M309.608 233.973H299.073V249.24H309.608V233.973Z" fill="#FAFAFA"/>
<path d="M309.608 289.855H299.073V305.122H309.608V289.855Z" fill="#FAFAFA"/>
<path d="M268.301 305.829C268.138 305.829 268.004 290.093 268.004 270.682C268.004 251.271 268.138 235.536 268.301 235.536C268.465 235.536 268.599 251.271 268.599 270.682C268.591 290.093 268.465 305.829 268.301 305.829Z" fill="#E0E0E0"/>
<path d="M334.964 84.9724L339.934 95.0387L351.041 96.6532L343.006 104.495L344.903 115.558L334.964 110.335L325.024 115.558L326.921 104.495L318.878 96.6532L329.994 95.0387L334.964 84.9724Z" fill="#EBEBEB"/>
<path d="M39.0674 214.994L42.1997 221.34L49.2007 222.352L44.1341 227.292L45.3319 234.271L39.0674 230.975L32.803 234.271L34.0008 227.292L28.9342 222.352L35.9352 221.34L39.0674 214.994Z" fill="#EBEBEB"/>
<path d="M42.9511 159.707L49.9075 173.798L65.4571 176.06L54.2078 187.027L56.8639 202.517L42.9511 195.203L29.0458 202.517L31.7018 187.027L20.4451 176.06L36.0022 173.798L42.9511 159.707Z" fill="#EBEBEB"/>
<path d="M330.537 130.438L333.535 136.517L340.239 137.491L335.388 142.216L336.534 148.889L330.537 145.742L324.54 148.889L325.686 142.216L320.835 137.491L327.539 136.517L330.537 130.438Z" fill="#EBEBEB"/>
<path d="M232.165 32.0442L235.164 38.1152L241.867 39.0899L237.016 43.8143L238.162 50.4954L232.165 47.3408L226.169 50.4954L227.314 43.8143L222.463 39.0899L229.167 38.1152L232.165 32.0442Z" fill="#EBEBEB"/>
<path d="M300.74 97.0251L302.704 100.998L307.093 101.638L303.917 104.733L304.668 109.1L300.74 107.039L296.819 109.1L297.57 104.733L294.393 101.638L298.783 100.998L300.74 97.0251Z" fill="#EBEBEB"/>
<path d="M119.724 297.682L123.549 305.42L132.09 306.662L125.907 312.688L127.373 321.2L119.724 317.182L112.084 321.2L113.542 312.688L107.359 306.662L115.908 305.42L119.724 297.682Z" fill="#EBEBEB"/>
<path d="M129.813 289.981L131.39 293.181L134.924 293.694L132.365 296.186L132.975 299.706L129.813 298.039L126.659 299.706L127.261 296.186L124.702 293.694L128.236 293.181L129.813 289.981Z" fill="#EBEBEB"/>
<path d="M270.92 260.341L274.276 267.148L281.79 268.242L276.351 273.539L277.638 281.024L270.92 277.49L264.194 281.024L265.482 273.539L260.043 268.242L267.557 267.148L270.92 260.341Z" fill="#FF9F02"/>
<path d="M286.946 254.307L288.531 257.513L292.065 258.027L289.505 260.526L290.108 264.053L286.946 262.386L283.776 264.053L284.387 260.526L281.82 258.027L285.361 257.513L286.946 254.307Z" fill="#FF9F02"/>
<path d="M265.935 77.1232L268.562 68.8945C266.516 64.7951 265.548 60.093 265.987 55.1975C267.26 41.1136 279.729 30.7273 293.828 32.007C307.934 33.2793 318.335 45.7338 317.056 59.8177C315.783 73.9017 303.314 84.2879 289.215 83.0082C283.323 82.4725 278.479 80.3447 274.454 76.6098L265.935 77.1232Z" fill="#FAFAFA"/>
<path d="M265.935 77.1231C265.935 77.1231 266.136 77.1007 266.501 77.0784C266.88 77.0487 267.431 77.0115 268.138 76.9594C269.581 76.8627 271.701 76.7139 274.454 76.5279H274.491L274.521 76.5502C276.947 78.7896 280.644 81.2671 285.651 82.3311C286.894 82.5989 288.203 82.8072 289.565 82.8891C290.249 82.9114 290.941 82.9411 291.648 82.9709C292.355 82.9635 293.069 82.8891 293.798 82.8519C296.7 82.584 299.735 81.8028 302.652 80.3743C305.568 78.9533 308.351 76.8924 310.68 74.2363C313.001 71.5803 314.891 68.3364 315.94 64.6983C316.989 61.0675 317.249 57.0871 316.572 53.1588C316.453 52.1693 316.14 51.2095 315.895 50.2349C315.783 49.7439 315.575 49.2751 315.404 48.799C315.225 48.3303 315.054 47.8467 314.861 47.3779C313.983 45.5477 313.023 43.71 311.714 42.0955C311.119 41.2399 310.389 40.5108 309.697 39.7519C309.37 39.3576 308.953 39.0451 308.581 38.6955C308.195 38.3607 307.837 37.9961 307.436 37.6911L306.216 36.7908L305.605 36.3444L304.958 35.9575L303.664 35.1838C303.232 34.9383 302.763 34.7448 302.317 34.5291C298.716 32.8402 294.817 32.0218 291.038 32.1036C287.258 32.178 283.635 33.1006 280.458 34.6332C277.281 36.1659 274.551 38.2937 272.408 40.7191C270.258 43.1446 268.696 45.8602 267.661 48.5832C267.535 48.9255 267.416 49.2677 267.297 49.6025C267.17 49.9373 267.059 50.2721 266.984 50.6218C266.813 51.3063 266.65 51.9833 266.479 52.6455C266.3 53.9995 266.047 55.3015 266.025 56.5738C265.816 61.6702 267.163 65.9035 268.629 68.8721L268.644 68.9019L268.636 68.9316C267.766 71.5803 267.096 73.6188 266.642 75.0101C266.412 75.6946 266.24 76.2228 266.121 76.5874C266.002 76.9371 265.935 77.1231 265.935 77.1231C265.935 77.1231 265.98 76.9519 266.084 76.6023C266.196 76.2377 266.359 75.7169 266.568 75.0324C267.007 73.6188 267.647 71.5505 268.48 68.8647L268.487 68.9242C266.984 65.9556 265.593 61.6925 265.779 56.544C265.801 55.2569 266.04 53.9475 266.218 52.5785C266.382 51.9089 266.545 51.2244 266.717 50.5325C266.791 50.1828 266.903 49.8406 267.029 49.4983C267.148 49.1561 267.275 48.8139 267.394 48.4642C268.42 45.7114 269.998 42.9511 272.17 40.4885C274.335 38.0259 277.088 35.8608 280.309 34.2984C283.524 32.736 287.206 31.7986 291.038 31.7167C294.87 31.6275 298.828 32.4533 302.488 34.1645C302.942 34.3877 303.411 34.5811 303.85 34.8267L305.159 35.6079L305.814 36.0022L306.431 36.456L307.674 37.3711C308.083 37.6836 308.448 38.0556 308.842 38.3904C309.221 38.7475 309.638 39.06 309.973 39.4618C310.672 40.2355 311.416 40.9721 312.019 41.8351C313.343 43.4719 314.325 45.3394 315.211 47.1994C315.411 47.6755 315.575 48.1666 315.761 48.6427C315.932 49.1263 316.148 49.5951 316.26 50.101C316.512 51.0905 316.832 52.0651 316.951 53.0695C317.636 57.0574 317.361 61.0973 316.297 64.7801C315.225 68.4703 313.306 71.7588 310.94 74.4447C308.574 77.1379 305.747 79.2137 302.786 80.6422C299.825 82.0781 296.744 82.8593 293.813 83.1197C293.077 83.1569 292.355 83.2239 291.641 83.2313C290.926 83.2015 290.227 83.1718 289.535 83.142C288.159 83.0527 286.842 82.837 285.584 82.5617C280.533 81.468 276.813 78.931 274.402 76.6543L274.462 76.6767C271.679 76.8255 269.544 76.9371 268.086 77.0115C267.386 77.0487 266.843 77.071 266.464 77.0933C266.114 77.1231 265.935 77.1231 265.935 77.1231Z" fill="#263238"/>
<path d="M276.999 56.544L281.217 52.8835L288.322 60.1821L304.259 46.9092L307.629 51.1128L287.214 67.7337L276.999 56.544Z" fill="#FF9F02"/>
<path d="M221.794 260.021L79.1244 291.819C75.6648 292.593 72.2275 290.406 71.4538 286.946L25.1546 79.1839C24.3809 75.7243 26.5682 72.287 30.0278 71.5133L172.697 39.7147C176.157 38.941 179.594 41.1283 180.368 44.5879L226.667 252.35C227.441 255.817 225.261 259.254 221.794 260.021Z" fill="#E0E0E0"/>
<path d="M221.794 260.02C221.794 260.02 221.95 259.968 222.27 259.879C222.583 259.79 223.044 259.611 223.609 259.299C224.16 258.971 224.814 258.48 225.41 257.729C225.997 256.985 226.526 255.966 226.712 254.716C226.816 254.098 226.808 253.421 226.697 252.729C226.578 252.037 226.392 251.316 226.228 250.557C225.886 249.039 225.514 247.372 225.112 245.572C224.301 241.971 223.371 237.812 222.322 233.125C218.133 214.398 212.077 187.294 204.6 153.814C200.865 137.067 196.766 118.727 192.376 99.0412C190.181 89.1981 187.905 79.0127 185.568 68.5297C184.4 63.2845 183.21 57.9649 182.012 52.5709C181.41 49.8777 180.799 47.1621 180.189 44.4316C179.862 43.0998 179.058 41.902 177.98 41.0389C176.886 40.1982 175.524 39.6997 174.133 39.7072C173.434 39.7072 172.757 39.8411 172.065 40.0048C171.373 40.161 170.674 40.3173 169.982 40.4735C168.59 40.786 167.192 41.0985 165.793 41.4109C162.988 42.0359 160.176 42.6609 157.341 43.2933C151.672 44.5581 145.943 45.8377 140.147 47.1249C128.556 49.7065 116.726 52.3477 104.681 55.0336C80.5901 60.4053 55.6438 65.9629 30.0948 71.662C28.5324 72.0042 27.1188 72.964 26.2409 74.2957C25.3481 75.6126 24.991 77.2792 25.2737 78.849C25.9433 82.0185 26.6798 85.1879 27.3718 88.3425C28.7779 94.6516 30.1766 100.923 31.5605 107.143C34.3356 119.59 37.0661 131.852 39.7519 143.897C45.1162 167.995 50.2944 191.238 55.2271 213.379C60.1599 235.521 64.8396 256.561 69.2292 276.255C69.7798 278.717 70.3229 281.157 70.8586 283.575C71.1338 284.781 71.3868 286.001 71.677 287.176C71.982 288.345 72.6367 289.401 73.5221 290.205C74.4074 291.008 75.516 291.544 76.6766 291.752C77.257 291.849 77.8522 291.864 78.4399 291.804C79.0202 291.73 79.6006 291.588 80.1883 291.454C82.517 290.934 84.8309 290.42 87.115 289.914C96.2587 287.883 105.03 285.927 113.4 284.067C146.895 276.627 173.999 270.6 192.726 266.441C202.093 264.365 209.362 262.758 214.294 261.665C216.757 261.122 218.639 260.705 219.904 260.43C221.147 260.154 221.794 260.02 221.794 260.02C221.794 260.02 221.147 260.177 219.889 260.459C218.624 260.742 216.75 261.166 214.287 261.724C209.354 262.833 202.085 264.462 192.726 266.56C173.999 270.749 146.903 276.805 113.415 284.282C105.045 286.15 96.2736 288.106 87.1298 290.152C84.8458 290.666 82.5394 291.179 80.2032 291.7C79.6229 291.826 79.0426 291.975 78.4325 292.05C77.8224 292.109 77.2049 292.094 76.6022 291.998C75.3895 291.782 74.2363 291.224 73.3212 290.391C72.4061 289.557 71.7142 288.456 71.4017 287.243C71.1041 286.038 70.8586 284.84 70.5833 283.628C70.0402 281.21 69.497 278.769 68.9465 276.307C64.5569 256.613 59.8622 235.573 54.9221 213.431C49.9819 191.29 44.8037 168.047 39.4246 143.949C36.7387 131.904 34.0082 119.635 31.2331 107.195C29.8493 100.976 28.4506 94.7037 27.0444 88.3945C26.345 85.2325 25.6234 82.0854 24.9389 78.8862C24.6487 77.2494 25.0207 75.4936 25.9582 74.1097C26.8807 72.7185 28.3613 71.7066 30.0055 71.3495C55.5545 65.6579 80.5008 60.1002 104.592 54.7285C116.637 52.0427 128.474 49.4089 140.058 46.8273C145.854 45.5401 151.583 44.2605 157.252 42.9957C160.086 42.3633 162.906 41.7383 165.704 41.1133C167.102 40.8009 168.501 40.4884 169.892 40.1833C170.592 40.0271 171.284 39.8709 171.976 39.7221C172.66 39.5584 173.382 39.4096 174.111 39.417C175.562 39.4096 176.99 39.9304 178.128 40.8083C179.252 41.7011 180.093 42.9585 180.435 44.3497C181.045 47.0802 181.655 49.7958 182.258 52.4965C183.456 57.8905 184.646 63.2101 185.814 68.4553C188.15 78.9457 190.412 89.1237 192.607 98.9742C196.989 118.668 201.066 137.007 204.793 153.755C212.233 187.25 218.26 214.354 222.426 233.088C223.468 237.767 224.39 241.934 225.187 245.535C225.588 247.335 225.953 249.002 226.288 250.527C226.451 251.293 226.637 252.008 226.749 252.707C226.86 253.406 226.868 254.091 226.756 254.716C226.563 255.973 226.02 257 225.425 257.751C224.822 258.503 224.16 258.994 223.602 259.321C223.029 259.626 222.568 259.805 222.255 259.894C221.958 259.983 221.794 260.02 221.794 260.02Z" fill="#263238"/>
<g opacity="0.3">
<path d="M86.3561 284.461L216.348 254.746L212.241 229.271L204.868 214.994L80.5157 263.837L86.3561 284.461Z" fill="black"/>
</g>
<g opacity="0.3">
<path d="M140.631 47.3406L145.549 55.4576L146.501 59.7654L143.168 60.5094L140.631 47.3406Z" fill="black"/>
</g>
<path d="M32.5574 80.389L77.6587 282.757L219.026 251.256L210.961 215.068L173.925 48.8806L32.5574 80.389Z" fill="white"/>
<path d="M32.5574 80.3891C33.5618 80.1659 87.978 67.9867 173.895 48.7617L174.014 48.7319L174.044 48.8584C186.588 105.097 202.234 175.279 219.168 251.204V251.219L219.205 251.368L219.056 251.405C168.516 262.662 120.528 273.353 77.6885 282.898L77.5471 282.928L77.5174 282.787C50.9715 163.286 32.8327 81.6242 32.5574 80.3891C32.8327 81.6242 51.083 163.263 77.7926 282.727L77.6215 282.623C120.461 273.07 168.449 262.372 218.989 251.107L218.87 251.293V251.278C201.959 175.346 186.327 105.164 173.806 48.9179L173.955 49.0147C88.0003 68.0834 33.5693 80.1659 32.5574 80.3891Z" fill="#263238"/>
<path d="M143.927 62.1536L72.3986 78.0975L68.7977 61.9453C68.2323 59.4083 69.8318 56.8935 72.3689 56.3281L134.709 42.4376C137.246 41.8722 139.76 43.4718 140.326 46.0088L143.927 62.1536Z" fill="#263238"/>
<path d="M110.908 39.5435L92.7024 43.5983L98.3047 58.7312L112.017 55.6734L110.908 39.5435Z" fill="#263238"/>
<path d="M134.709 42.4301C134.724 42.5119 120.788 45.6888 103.572 49.5278C86.3561 53.3669 72.3838 56.4098 72.3689 56.328C72.354 56.2462 86.2891 53.0693 103.505 49.2302C120.721 45.3912 134.694 42.3482 134.709 42.4301Z" fill="#455A64"/>
<path d="M73.2543 74.3851C73.1724 74.4 72.4507 71.4835 71.6472 67.8677C70.8437 64.2444 70.2559 61.2981 70.3378 61.2833C70.4196 61.2684 71.1413 64.1849 71.9523 67.8007C72.7483 71.4165 73.3361 74.3702 73.2543 74.3851Z" fill="#455A64"/>
<path d="M140.519 57.7641C140.437 57.7789 139.775 55.1303 139.046 51.8493C138.317 48.5608 137.789 45.8824 137.871 45.8675C137.952 45.8526 138.615 48.5013 139.344 51.7823C140.08 55.0708 140.601 57.7492 140.519 57.7641Z" fill="#455A64"/>
<path d="M137.685 61.298C137.7 61.3798 123.392 64.6385 105.722 68.5817C88.045 72.5175 73.7081 75.6423 73.6932 75.5604C73.6783 75.4786 87.9855 72.2199 105.655 68.2767C123.325 64.3409 137.67 61.2161 137.685 61.298Z" fill="#455A64"/>
<path d="M100.031 120.163C100.053 120.245 90.396 122.47 78.4771 125.126C66.5508 127.782 56.8714 129.872 56.849 129.783C56.8267 129.701 66.4764 127.477 78.4027 124.821C90.329 122.172 100.008 120.081 100.031 120.163Z" fill="#263238"/>
<path d="M171.983 112.061C172.005 112.143 146.784 117.835 115.662 124.776C84.5259 131.718 59.2819 137.268 59.267 137.186C59.2447 137.104 84.4663 131.413 115.595 124.471C146.717 117.537 171.968 111.979 171.983 112.061Z" fill="#263238"/>
<path d="M173.538 119.017C173.56 119.099 148.339 124.791 117.217 131.732C86.0808 138.674 60.8369 144.224 60.822 144.142C60.7997 144.061 86.0213 138.369 117.15 131.427C148.264 124.486 173.516 118.936 173.538 119.017Z" fill="#263238"/>
<path d="M175.086 125.974C175.108 126.056 149.886 131.747 118.765 138.689C87.6283 145.631 62.3844 151.181 62.3695 151.099C62.3472 151.017 87.5688 145.325 118.698 138.384C149.819 131.442 175.063 125.892 175.086 125.974Z" fill="#263238"/>
<path d="M176.633 132.93C176.655 133.012 151.434 138.704 120.312 145.645C89.1758 152.587 63.9319 158.137 63.917 158.055C63.8947 157.973 89.1163 152.282 120.245 145.34C151.367 138.399 176.618 132.841 176.633 132.93Z" fill="#263238"/>
<path d="M178.188 139.879C178.21 139.961 152.989 145.653 121.867 152.594C90.7308 159.536 65.4869 165.086 65.472 165.004C65.4497 164.922 90.6713 159.231 121.8 152.289C152.914 145.355 178.166 139.797 178.188 139.879Z" fill="#263238"/>
<path d="M87.3233 188.835C87.3158 188.827 87.2935 188.753 87.2563 188.597C87.2117 188.425 87.1596 188.202 87.0926 187.934C86.9513 187.332 86.7504 186.498 86.5049 185.449C86.0064 183.299 85.307 180.279 84.4738 176.663L84.6374 176.767C81.0886 177.563 76.8998 178.508 72.4433 179.505C72.4135 179.542 72.6665 179.155 72.5623 179.319V179.326V179.341L72.5698 179.371L72.5846 179.423L72.607 179.527L72.6516 179.736L72.7409 180.152C72.8004 180.427 72.8674 180.703 72.9269 180.978C73.0459 181.529 73.1724 182.072 73.2914 182.607C73.5295 183.686 73.7602 184.735 73.9908 185.762C74.4446 187.808 74.8687 189.742 75.2556 191.52L75.0919 191.416C78.7226 190.635 81.7507 189.988 83.9083 189.519C84.9648 189.296 85.8055 189.125 86.4082 188.998C86.6834 188.946 86.8992 188.902 87.0778 188.864C87.234 188.85 87.3158 188.835 87.3233 188.835C87.3307 188.842 87.2563 188.857 87.115 188.894C86.9513 188.939 86.7355 188.991 86.4751 189.05C85.8799 189.192 85.0541 189.385 84.0199 189.631C81.8474 190.129 78.797 190.836 75.144 191.677L75.0101 191.706L74.9803 191.573C74.5786 189.794 74.147 187.867 73.6858 185.821C73.4551 184.795 73.217 183.746 72.979 182.667C72.8599 182.131 72.7334 181.588 72.6144 181.038C72.5549 180.762 72.4879 180.487 72.4284 180.212L72.3391 179.795L72.2945 179.587L72.2722 179.483L72.2573 179.43L72.2498 179.401V179.386V179.378C72.1457 179.542 72.3912 179.148 72.3689 179.192C76.8329 178.203 81.0216 177.28 84.5779 176.492L84.7118 176.462L84.7416 176.596C85.5302 180.256 86.185 183.322 86.6537 185.502C86.8694 186.543 87.0406 187.376 87.167 187.972C87.2191 188.232 87.2638 188.448 87.2935 188.619C87.3233 188.768 87.3307 188.842 87.3233 188.835Z" fill="#263238"/>
<path d="M178.031 158.757L92.9033 177.725L94.4859 184.828L179.613 165.859L178.031 158.757Z" fill="#E0E0E0"/>
<path d="M92.0402 210.009C92.0328 210.001 92.0105 209.927 91.9733 209.771C91.9286 209.6 91.8766 209.376 91.8096 209.108C91.6682 208.506 91.4674 207.673 91.2218 206.623C90.7234 204.473 90.024 201.453 89.1907 197.837L89.3544 197.941C85.8055 198.737 81.6168 199.682 77.1528 200.679C77.123 200.716 77.376 200.329 77.2718 200.493V200.5V200.515L77.2793 200.545L77.2942 200.597L77.3165 200.701L77.3611 200.91L77.4504 201.326C77.5099 201.602 77.5769 201.877 77.6364 202.152C77.7554 202.703 77.8819 203.246 78.001 203.781C78.239 204.86 78.4697 205.909 78.7003 206.936C79.1542 208.982 79.5782 210.916 79.9651 212.695L79.8014 212.59C83.4322 211.809 86.4602 211.162 88.6253 210.693C89.6818 210.47 90.5225 210.299 91.1251 210.172C91.4004 210.12 91.6162 210.076 91.7947 210.038C91.951 210.016 92.0328 210.001 92.0402 210.009C92.0477 210.016 91.9733 210.031 91.8319 210.068C91.6682 210.113 91.4525 210.165 91.1921 210.224C90.5969 210.366 89.771 210.559 88.7369 210.805C86.5644 211.303 83.514 212.01 79.861 212.851L79.727 212.881L79.6973 212.747C79.2955 210.968 78.864 209.041 78.4027 206.995C78.1721 205.969 77.934 204.92 77.6959 203.841C77.5769 203.305 77.4504 202.762 77.3314 202.212C77.2718 201.936 77.2049 201.661 77.1454 201.386L77.0561 200.969L77.0114 200.761L76.9891 200.657L76.9742 200.605L76.9668 200.575V200.56V200.552C76.8626 200.716 77.1082 200.322 77.0858 200.366C81.5498 199.377 85.7386 198.454 89.2949 197.666L89.4288 197.636L89.4586 197.77C90.2472 201.43 90.9019 204.496 91.3706 206.676C91.5864 207.717 91.7575 208.55 91.884 209.146C91.9361 209.406 91.9807 209.622 92.0105 209.793C92.0402 209.934 92.0477 210.009 92.0402 210.009Z" fill="#263238"/>
<path d="M182.747 179.925L97.6196 198.893L99.2022 205.996L184.33 187.027L182.747 179.925Z" fill="#E0E0E0"/>
<path d="M96.7572 231.175C96.7498 231.168 96.7274 231.094 96.6902 230.937C96.6456 230.766 96.5935 230.543 96.5266 230.275C96.3852 229.673 96.1843 228.839 95.9388 227.79C95.4403 225.64 94.741 222.619 93.9077 219.004L94.0714 219.108C90.5225 219.904 86.3338 220.849 81.8772 221.846C81.8474 221.883 82.1004 221.496 81.9962 221.66V221.667V221.682L82.0037 221.712L82.0186 221.764L82.0409 221.868L82.0855 222.076L82.1748 222.493C82.2343 222.768 82.3013 223.044 82.3608 223.319C82.4798 223.869 82.6063 224.413 82.7254 224.948C82.9634 226.027 83.1941 227.076 83.4247 228.103C83.8786 230.149 84.3026 232.083 84.6895 233.861L84.5258 233.757C88.1566 232.976 91.1846 232.329 93.3422 231.86C94.3987 231.637 95.2395 231.466 95.8421 231.339C96.1174 231.287 96.3331 231.242 96.5117 231.205C96.6679 231.183 96.7572 231.168 96.7572 231.175C96.7646 231.183 96.6902 231.198 96.5489 231.235C96.3852 231.28 96.1694 231.332 95.909 231.391C95.3138 231.533 94.488 231.726 93.4538 231.972C91.2814 232.47 88.231 233.177 84.5779 234.018L84.444 234.047L84.4142 233.913C84.0125 232.135 83.581 230.208 83.1197 228.162C82.889 227.136 82.651 226.086 82.4129 225.008C82.2938 224.472 82.1748 223.929 82.0483 223.378C81.9888 223.103 81.9218 222.828 81.8623 222.553L81.773 222.136L81.7284 221.928L81.7061 221.823L81.6912 221.771L81.6838 221.742V221.727V221.719C81.5796 221.883 81.8251 221.489 81.8028 221.533C86.2668 220.544 90.4555 219.621 94.0118 218.833L94.1458 218.803L94.1755 218.937C94.9642 222.597 95.6189 225.662 96.0876 227.842C96.3034 228.884 96.4745 229.717 96.601 230.312C96.653 230.573 96.6977 230.789 96.7274 230.96C96.7572 231.108 96.7646 231.175 96.7572 231.175Z" fill="#263238"/>
<path d="M187.465 201.1L102.338 220.069L103.92 227.171L189.048 208.202L187.465 201.1Z" fill="#E0E0E0"/>
<path d="M75.6053 184.46L76.8775 182.451L80.6794 184.564L85.5749 177.184L87.4646 178.493L81.1555 187.786L75.6053 184.46Z" fill="#FF9F02"/>
<path d="M80.1586 204.92L81.4383 202.911L85.2401 205.024L90.1282 197.644L92.0254 198.953L85.7088 208.246L80.1586 204.92Z" fill="#FF9F02"/>
<path d="M84.8383 225.901L86.118 223.892L89.9124 226.005L94.8079 218.624L96.6977 219.926L90.3886 229.226L84.8383 225.901Z" fill="#FF9F02"/>
<path d="M123.802 252.223C123.824 252.305 116.637 253.979 107.754 255.958C98.8702 257.937 91.6534 259.477 91.631 259.388C91.6087 259.306 98.7958 257.632 107.687 255.653C116.562 253.682 123.779 252.141 123.802 252.223Z" fill="#263238"/>
<path d="M139.827 248.392C139.85 248.474 137.201 249.136 133.92 249.865C130.639 250.594 127.968 251.122 127.946 251.033C127.923 250.951 130.572 250.289 133.853 249.56C137.134 248.838 139.812 248.31 139.827 248.392Z" fill="#263238"/>
<path d="M192.904 231.689C192.927 231.771 186.454 233.289 178.463 235.067C170.465 236.852 163.97 238.229 163.955 238.139C163.933 238.058 170.398 236.54 178.396 234.762C186.387 232.984 192.889 231.607 192.904 231.689Z" fill="#263238"/>
<path d="M185.993 251.271C185.978 251.264 186.052 251.07 186.134 250.676C186.223 250.289 186.223 249.686 186.045 248.957C185.859 248.221 185.472 247.38 185.018 246.398C184.579 245.423 184.006 244.263 183.999 242.849C184.021 241.465 184.631 239.925 185.881 238.846C187.116 237.745 189.065 237.358 190.829 237.924C191.706 238.206 192.555 238.705 193.18 239.471C193.477 239.858 193.723 240.327 193.738 240.862C193.782 241.406 193.366 241.949 192.867 242.12C192.369 242.306 191.892 242.365 191.401 242.484C190.91 242.589 190.419 242.685 189.921 242.789C188.924 242.983 187.912 243.169 186.878 243.303C184.81 243.578 182.734 243.615 180.792 243.34C179.84 243.236 178.835 243.221 178.121 243.779C177.407 244.322 177.042 245.207 176.514 245.951C176.254 246.323 175.919 246.688 175.48 246.881C175.048 247.082 174.542 247.075 174.118 246.941C173.263 246.651 172.63 246.078 171.946 245.691C171.611 245.49 171.261 245.334 170.897 245.297C170.54 245.26 170.183 245.349 169.9 245.55C169.327 245.959 169.022 246.636 168.642 247.201C167.891 248.407 166.596 248.972 165.503 249.017C164.379 249.069 163.472 248.593 162.899 248.094C162.311 247.581 162.021 247.038 161.872 246.666C161.723 246.286 161.701 246.078 161.701 246.078C161.716 246.07 161.76 246.279 161.924 246.643C162.095 247 162.393 247.521 162.973 248.005C163.546 248.481 164.424 248.913 165.488 248.846C166.537 248.794 167.75 248.236 168.456 247.09C168.828 246.539 169.111 245.84 169.766 245.364C170.086 245.133 170.51 245.021 170.927 245.059C171.343 245.096 171.723 245.274 172.08 245.483C172.787 245.884 173.426 246.442 174.2 246.695C174.587 246.814 175.004 246.814 175.368 246.643C175.74 246.48 176.038 246.167 176.283 245.803C176.797 245.096 177.146 244.181 177.95 243.556C178.352 243.243 178.85 243.087 179.341 243.035C179.84 242.983 180.338 243.013 180.829 243.057C182.771 243.333 184.787 243.288 186.848 243.02C187.875 242.886 188.879 242.708 189.876 242.514C190.375 242.41 190.866 242.313 191.349 242.209C191.833 242.098 192.339 242.031 192.763 241.867C193.187 241.711 193.477 241.339 193.447 240.9C193.44 240.468 193.232 240.037 192.956 239.687C192.384 238.988 191.58 238.504 190.747 238.229C189.073 237.686 187.235 238.043 186.06 239.077C184.862 240.096 184.259 241.562 184.229 242.886C184.222 244.225 184.758 245.379 185.189 246.361C185.628 247.343 186.007 248.213 186.179 248.965C186.342 249.716 186.32 250.334 186.208 250.72C186.097 251.085 185.993 251.271 185.993 251.271Z" fill="#263238"/>
<path d="M201.378 241.748C201.378 241.755 201.245 241.8 200.992 241.867C200.701 241.934 200.329 242.023 199.868 242.142C198.849 242.38 197.443 242.708 195.717 243.102C192.212 243.913 187.376 245.059 182.064 246.405C176.745 247.752 171.946 249.054 168.479 250.006C166.775 250.475 165.376 250.862 164.372 251.137C163.911 251.256 163.539 251.36 163.256 251.435C162.996 251.502 162.862 251.532 162.862 251.517C162.862 251.509 162.988 251.457 163.241 251.375C163.524 251.286 163.888 251.167 164.342 251.018C165.302 250.713 166.693 250.296 168.419 249.791C171.871 248.779 176.663 247.447 181.982 246.1C187.302 244.754 192.145 243.638 195.665 242.879C197.42 242.499 198.849 242.202 199.838 242.016C200.307 241.926 200.687 241.86 200.977 241.8C201.237 241.755 201.371 241.74 201.378 241.748Z" fill="#263238"/>
<path d="M140.36 78.4948L82.5753 91.3708L84.9945 102.228L142.78 89.3518L140.36 78.4948Z" fill="#E0E0E0"/>
<path d="M195.017 254.679L213.684 353.303L230.744 321.78L263.078 340.759L228.758 244.724L195.017 254.679Z" fill="#FF9F02"/>
<g opacity="0.3">
<path d="M201.297 287.846C204.749 288.56 208.774 287.34 211.222 284.803C212.925 283.04 214.056 280.652 216.199 279.476C218.126 278.42 220.499 278.568 222.612 279.156C224.733 279.744 226.727 280.719 228.847 281.277C233.013 282.355 237.611 281.678 241.287 279.431L235.9 264.477L210.902 261.352L198.983 275.674L201.297 287.846Z" fill="black"/>
</g>
<path d="M229.531 317.866C229.427 317.896 226.645 307.651 223.326 294.988C220.001 282.326 217.389 272.036 217.494 272.014C217.598 271.984 220.373 282.229 223.706 294.892C227.017 307.547 229.636 317.837 229.531 317.866Z" fill="#263238"/>
<path d="M197.748 259.805L179.081 358.429L162.021 326.914L129.687 345.886L164.007 249.85L197.748 259.805Z" fill="#FF9F02"/>
<g opacity="0.3">
<path d="M153.74 278.576C153.74 278.576 159.052 282.943 165.384 280.934C171.715 278.918 175.651 278.494 179.081 280.934C182.511 283.375 191.788 291.321 191.788 291.321L193.946 279.945L181.484 262.833L168.471 265.459L159.201 266.382L155.756 272.899L153.74 278.576Z" fill="black"/>
</g>
<path d="M307.198 170.778C307.198 177.853 298.151 183.947 296.826 190.635C295.465 197.525 301.461 206.609 298.835 212.948C296.157 219.398 285.465 221.571 281.634 227.3C277.765 233.08 279.826 243.779 274.93 248.675C270.035 253.57 259.329 251.509 253.555 255.378C247.819 259.217 245.654 269.908 239.203 272.579C232.865 275.206 223.78 269.209 216.891 270.571C210.202 271.895 204.109 280.942 197.034 280.942C189.958 280.942 183.865 271.895 177.176 270.571C170.287 269.209 161.202 275.206 154.864 272.579C148.413 269.901 146.241 259.21 140.512 255.378C134.731 251.509 124.032 253.57 119.137 248.675C114.241 243.779 116.302 233.073 112.433 227.3C108.594 221.563 97.903 219.398 95.232 212.948C92.6057 206.609 98.6023 197.525 97.2408 190.635C95.9165 183.947 86.8694 177.853 86.8694 170.778C86.8694 163.702 95.9165 157.609 97.2408 150.92C98.6023 144.031 92.6057 134.947 95.232 128.608C97.9104 122.157 108.602 119.985 112.433 114.256C116.302 108.475 114.241 97.7766 119.137 92.881C124.032 87.9855 134.738 90.0464 140.512 86.1776C146.248 82.3386 148.413 71.6473 154.864 68.9763C161.202 66.35 170.287 72.3467 177.176 70.9851C183.865 69.6608 189.958 60.6138 197.034 60.6138C204.109 60.6138 210.202 69.6608 216.891 70.9851C223.78 72.3467 232.865 66.35 239.203 68.9763C245.654 71.6547 247.826 82.346 253.555 86.1776C259.336 90.0464 270.035 87.9855 274.93 92.881C279.826 97.7766 277.765 108.483 281.634 114.256C285.473 119.992 296.164 122.157 298.835 128.608C301.461 134.947 295.465 144.031 296.826 150.92C298.158 157.602 307.198 163.702 307.198 170.778Z" fill="#FF9F02"/>
<path d="M171.246 109.018C171.232 109.026 171.165 108.922 171.046 108.713C170.904 108.468 170.741 108.17 170.54 107.806C170.101 107.017 169.506 105.856 168.784 104.413C167.348 101.526 165.488 97.4641 163.695 92.881C161.909 88.2905 160.525 84.0423 159.625 80.9473C159.171 79.3997 158.837 78.1349 158.621 77.2645C158.524 76.8627 158.442 76.5279 158.383 76.2526C158.331 76.022 158.308 75.8955 158.323 75.8955C158.338 75.8955 158.383 76.0071 158.457 76.2377C158.539 76.5056 158.643 76.8329 158.77 77.2273C159.052 78.1498 159.432 79.3774 159.893 80.8729C160.86 83.9456 162.274 88.1641 164.059 92.7471C165.845 97.3227 167.66 101.392 169.029 104.301C169.706 105.715 170.257 106.876 170.674 107.746C170.852 108.118 170.994 108.431 171.113 108.684C171.209 108.899 171.254 109.011 171.246 109.018Z" fill="#263238"/>
<path d="M181.052 105.291C181.03 105.298 180.926 105.008 180.77 104.473C180.613 103.937 180.398 103.163 180.152 102.196C179.661 100.261 179.051 97.5756 178.5 94.5848C177.95 91.5939 177.563 88.8634 177.34 86.8844C177.228 85.8948 177.146 85.0913 177.109 84.5333C177.065 83.9753 177.057 83.6703 177.087 83.6628C177.117 83.6628 177.176 83.9604 177.265 84.511C177.362 85.1434 177.481 85.9246 177.623 86.8397C177.92 88.8039 178.344 91.5195 178.895 94.5104C179.445 97.4938 180.011 100.187 180.427 102.129C180.621 103.037 180.792 103.81 180.926 104.435C181.023 104.978 181.075 105.283 181.052 105.291Z" fill="#263238"/>
<path d="M198.35 103.572C198.246 103.572 197.971 95.232 197.733 84.935C197.502 74.6381 197.398 66.2904 197.502 66.283C197.606 66.283 197.882 74.6232 198.12 84.9202C198.35 95.2171 198.455 103.572 198.35 103.572Z" fill="#263238"/>
<path d="M215.753 86.423C215.857 86.4528 214.651 90.6266 213.067 95.7453C211.482 100.864 210.113 104.986 210.016 104.949C209.912 104.919 211.117 100.745 212.702 95.6263C214.287 90.515 215.648 86.3933 215.753 86.423Z" fill="#263238"/>
<path d="M222.858 107.991C222.843 107.984 222.88 107.865 222.955 107.642C223.044 107.374 223.155 107.054 223.297 106.66C223.594 105.812 224.056 104.591 224.636 103.081C225.797 100.075 227.471 95.9461 229.375 91.4152C231.28 86.8768 233.051 82.7922 234.353 79.846C234.992 78.4175 235.528 77.242 235.922 76.3641C236.101 75.9921 236.25 75.6796 236.369 75.4266C236.473 75.2108 236.54 75.1067 236.547 75.1067C236.555 75.1067 236.525 75.2332 236.436 75.4564C236.332 75.7168 236.205 76.0367 236.056 76.4236C235.692 77.3164 235.201 78.5068 234.606 79.9501C233.341 82.9708 231.63 87.0553 229.732 91.564C227.85 96.0726 226.154 100.157 224.889 103.185C224.294 104.636 223.803 105.826 223.438 106.712C223.274 107.091 223.14 107.404 223.029 107.664C222.925 107.88 222.873 107.991 222.858 107.991Z" fill="#263238"/>
<path d="M232.158 112.843C232.135 112.828 232.284 112.56 232.582 112.084C232.872 111.607 233.318 110.938 233.876 110.112C234.992 108.46 236.599 106.221 238.467 103.825C240.342 101.43 242.12 99.3241 243.452 97.8361C244.114 97.0921 244.664 96.4969 245.051 96.1025C245.438 95.7008 245.661 95.4925 245.684 95.5073C245.706 95.5222 245.52 95.7752 245.163 96.2067C244.754 96.6977 244.255 97.3078 243.66 98.0221C242.388 99.5473 240.639 101.675 238.772 104.071C236.904 106.466 235.268 108.676 234.1 110.283C233.549 111.035 233.08 111.667 232.708 112.188C232.374 112.612 232.18 112.857 232.158 112.843Z" fill="#263238"/>
<path d="M245.684 123.928C245.609 123.846 251.494 118.251 258.83 111.436C266.166 104.614 272.17 99.1454 272.245 99.2272C272.319 99.3091 266.434 104.897 259.098 111.726C251.762 118.541 245.758 124.01 245.684 123.928Z" fill="#263238"/>
<path d="M269.313 126.242C269.335 126.294 268.465 126.733 267.074 127.462C265.675 128.191 263.778 129.24 261.68 130.423C259.582 131.599 257.647 132.618 256.219 133.288C255.505 133.622 254.917 133.883 254.508 134.046C254.098 134.21 253.868 134.292 253.853 134.27C253.831 134.218 254.701 133.779 256.092 133.049C257.491 132.32 259.388 131.271 261.486 130.088C263.584 128.913 265.519 127.894 266.947 127.224C267.661 126.889 268.249 126.629 268.658 126.465C269.075 126.294 269.306 126.212 269.313 126.242Z" fill="#263238"/>
<path d="M291.194 135.311C291.231 135.415 284.223 137.975 275.548 141.025C266.865 144.083 259.805 146.479 259.768 146.374C259.73 146.27 266.739 143.718 275.421 140.661C284.089 137.61 291.157 135.214 291.194 135.311Z" fill="#263238"/>
<path d="M298.158 175.093C298.151 175.197 290.532 174.565 281.15 173.672C271.768 172.779 264.165 171.968 264.18 171.864C264.187 171.76 271.806 172.392 281.187 173.285C290.569 174.178 298.165 174.989 298.158 175.093Z" fill="#263238"/>
<path d="M292.556 210.775C292.511 210.872 285.391 207.606 276.656 203.477C267.922 199.347 260.876 195.925 260.921 195.828C260.965 195.732 268.086 198.998 276.82 203.127C285.555 207.249 292.6 210.679 292.556 210.775Z" fill="#263238"/>
<path d="M269.135 244.724C269.053 244.791 263.919 238.839 257.67 231.421C251.412 224.004 246.413 217.94 246.495 217.866C246.576 217.799 251.71 223.751 257.967 231.168C264.217 238.586 269.216 244.65 269.135 244.724Z" fill="#263238"/>
<path d="M249.582 249.203C249.56 249.218 249.337 248.92 248.965 248.37C248.585 247.819 248.05 247.008 247.402 246.004C246.108 243.987 244.374 241.175 242.551 238.006C240.729 234.844 239.151 231.927 238.058 229.799C237.507 228.735 237.076 227.872 236.785 227.262C236.495 226.66 236.346 226.317 236.369 226.302C236.391 226.288 236.585 226.608 236.919 227.188C237.284 227.835 237.745 228.668 238.296 229.665C239.456 231.756 241.063 234.643 242.886 237.805C244.709 240.967 246.405 243.801 247.64 245.847C248.228 246.822 248.712 247.64 249.091 248.28C249.433 248.868 249.612 249.188 249.582 249.203Z" fill="#263238"/>
<path d="M237.44 266.278C237.425 266.285 237.358 266.181 237.247 265.973C237.113 265.727 236.957 265.422 236.763 265.065C236.346 264.276 235.766 263.116 235.082 261.665C233.713 258.771 231.949 254.708 230.275 250.118C228.601 245.52 227.337 241.279 226.526 238.177C226.116 236.629 225.811 235.372 225.625 234.494C225.544 234.092 225.469 233.757 225.41 233.482C225.365 233.251 225.35 233.125 225.365 233.125C225.38 233.125 225.417 233.237 225.492 233.467C225.566 233.735 225.663 234.062 225.774 234.457C226.035 235.379 226.377 236.607 226.794 238.102C227.671 241.175 228.973 245.394 230.64 249.984C232.314 254.567 234.025 258.637 235.335 261.553C235.974 262.967 236.503 264.135 236.897 264.998C237.068 265.37 237.202 265.682 237.321 265.935C237.41 266.159 237.455 266.27 237.44 266.278Z" fill="#263238"/>
<path d="M212.844 254.307C212.784 254.307 212.695 253.317 212.524 251.717C212.353 250.118 212.085 247.908 211.675 245.49C211.266 243.072 210.805 240.892 210.448 239.322C210.091 237.753 209.853 236.785 209.912 236.77C209.935 236.763 210.031 236.994 210.173 237.425C210.314 237.857 210.507 238.482 210.716 239.255C211.14 240.81 211.653 242.99 212.062 245.423C212.472 247.856 212.695 250.081 212.799 251.688C212.851 252.491 212.881 253.146 212.881 253.6C212.881 254.054 212.866 254.307 212.844 254.307Z" fill="#263238"/>
<path d="M196.751 275.726C196.736 275.726 196.729 275.592 196.721 275.347C196.714 275.049 196.714 274.692 196.706 274.253C196.699 273.301 196.699 271.932 196.736 270.228C196.795 266.836 196.952 262.141 197.22 256.97C197.487 251.792 197.822 247.112 198.097 243.727C198.239 242.038 198.358 240.669 198.455 239.724C198.507 239.285 198.544 238.928 198.574 238.638C198.603 238.392 198.633 238.259 198.641 238.259C198.655 238.259 198.655 238.392 198.648 238.638C198.633 238.936 198.618 239.293 198.596 239.732C198.536 240.736 198.455 242.098 198.358 243.742C198.157 247.187 197.889 251.837 197.599 256.985C197.324 262.156 197.13 266.843 197.004 270.236C196.944 271.887 196.892 273.249 196.855 274.253C196.833 274.692 196.818 275.049 196.803 275.347C196.781 275.592 196.766 275.726 196.751 275.726Z" fill="#263238"/>
<path d="M183.671 238.251C183.723 238.258 183.642 238.988 183.448 240.148C183.255 241.309 182.942 242.908 182.533 244.664C182.124 246.413 181.692 247.99 181.35 249.113C181.008 250.244 180.755 250.929 180.703 250.914C180.651 250.899 180.807 250.185 181.082 249.039C181.387 247.759 181.752 246.249 182.154 244.568C182.54 242.886 182.883 241.368 183.18 240.089C183.441 238.95 183.619 238.244 183.671 238.251Z" fill="#263238"/>
<path d="M160.02 226.89C160.101 226.957 158.651 229.018 156.761 231.503C154.878 233.988 153.279 235.945 153.197 235.885C153.115 235.818 154.566 233.757 156.456 231.273C158.338 228.788 159.938 226.823 160.02 226.89Z" fill="#263238"/>
<path d="M147.617 218.557C147.699 218.624 143.079 224.048 137.305 230.662C131.532 237.284 126.785 242.589 126.703 242.514C126.621 242.447 131.242 237.023 137.015 230.402C142.788 223.795 147.535 218.483 147.617 218.557Z" fill="#263238"/>
<path d="M141.405 209.332C141.472 209.414 138.905 211.646 135.668 214.309C132.432 216.98 129.754 219.071 129.687 218.989C129.62 218.907 132.186 216.675 135.423 214.012C138.659 211.341 141.338 209.243 141.405 209.332Z" fill="#263238"/>
<path d="M134.143 195.404C134.188 195.501 127.76 198.693 119.784 202.539C111.801 206.386 105.298 209.421 105.254 209.324C105.209 209.228 111.637 206.036 119.62 202.189C127.589 198.35 134.099 195.307 134.143 195.404Z" fill="#263238"/>
<path d="M131.227 188.463C131.234 188.492 130.996 188.559 130.557 188.663C130.126 188.768 129.486 188.902 128.705 189.043C127.135 189.333 124.947 189.668 122.522 189.913C120.096 190.159 117.887 190.263 116.287 190.285C115.491 190.3 114.844 190.293 114.397 190.278C113.951 190.263 113.706 190.241 113.706 190.218C113.706 190.159 114.688 190.107 116.28 190.01C117.872 189.913 120.067 189.765 122.485 189.519C124.903 189.274 127.083 188.991 128.66 188.768C130.237 188.544 131.212 188.403 131.227 188.463Z" fill="#263238"/>
<path d="M128.868 172.429C128.868 172.459 128.4 172.444 127.566 172.4C126.666 172.355 125.476 172.295 124.025 172.221C121.034 172.08 116.905 171.938 112.344 171.961C107.783 171.99 103.654 172.169 100.663 172.348C99.2198 172.437 98.0294 172.511 97.1292 172.571C96.2959 172.623 95.8272 172.638 95.8272 172.615C95.8272 172.586 96.281 172.519 97.1143 172.422C97.9476 172.318 99.1529 172.199 100.648 172.08C103.632 171.834 107.768 171.611 112.344 171.581C116.92 171.559 121.056 171.737 124.04 171.953C125.535 172.057 126.74 172.169 127.574 172.258C128.407 172.34 128.868 172.407 128.868 172.429Z" fill="#263238"/>
<path d="M130.326 158.353C130.297 158.457 125.483 157.2 119.568 155.555C113.653 153.904 108.884 152.483 108.914 152.379C108.944 152.274 113.758 153.532 119.672 155.176C125.587 156.828 130.356 158.249 130.326 158.353Z" fill="#263238"/>
<path d="M133.444 146.546C133.436 146.561 133.317 146.531 133.094 146.464C132.826 146.382 132.499 146.285 132.112 146.166C131.257 145.906 130.036 145.489 128.533 144.939C125.535 143.845 121.443 142.178 117.068 140.028C112.694 137.871 108.877 135.646 106.184 133.927C104.837 133.072 103.758 132.358 103.029 131.837C102.694 131.599 102.419 131.405 102.196 131.242C102.01 131.1 101.913 131.026 101.921 131.011C101.928 131.004 102.04 131.056 102.24 131.175C102.479 131.323 102.769 131.495 103.118 131.71C103.87 132.186 104.971 132.864 106.332 133.689C109.056 135.341 112.887 137.521 117.247 139.671C121.607 141.814 125.669 143.518 128.638 144.671C130.126 145.251 131.331 145.705 132.164 146.01C132.544 146.159 132.864 146.278 133.124 146.375C133.332 146.486 133.444 146.538 133.444 146.546Z" fill="#263238"/>
<path d="M140.445 134.686C140.385 134.776 136.613 132.231 132.03 129.002C127.447 125.773 123.779 123.087 123.839 122.998C123.898 122.909 127.663 125.453 132.253 128.682C136.844 131.904 140.504 134.597 140.445 134.686Z" fill="#263238"/>
<path d="M125.647 98.5203C125.654 98.5129 125.751 98.5799 125.929 98.7287C126.138 98.9072 126.383 99.123 126.688 99.3759C127.38 99.9935 128.31 100.812 129.426 101.801C131.777 103.899 134.939 106.719 138.436 109.844C141.948 112.946 145.125 115.759 147.483 117.849C148.599 118.846 149.529 119.665 150.221 120.282C150.511 120.55 150.749 120.773 150.95 120.959C151.114 121.116 151.196 121.205 151.188 121.212C151.181 121.22 151.077 121.153 150.898 121.019C150.682 120.848 150.429 120.647 150.117 120.401C149.447 119.858 148.48 119.055 147.297 118.058C144.931 116.064 141.702 113.274 138.168 110.142C134.642 107.009 131.487 104.123 129.225 102.017C128.094 100.961 127.187 100.098 126.569 99.495C126.287 99.2197 126.056 98.989 125.862 98.7956C125.714 98.617 125.632 98.5278 125.647 98.5203Z" fill="#263238"/>
<path d="M148.852 99.1976C148.874 99.1827 149.053 99.3687 149.358 99.711C149.663 100.061 150.095 100.574 150.608 101.221C151.642 102.516 153.018 104.339 154.447 106.422C155.875 108.505 157.073 110.454 157.907 111.89C158.323 112.604 158.643 113.192 158.859 113.601C159.075 114.011 159.179 114.249 159.156 114.256C159.104 114.286 158.561 113.423 157.676 112.024C156.791 110.633 155.556 108.713 154.134 106.638C152.713 104.562 151.374 102.717 150.4 101.385C149.418 100.053 148.807 99.2274 148.852 99.1976Z" fill="#263238"/>
<g opacity="0.2">
<path d="M119.114 92.866L151.478 121.205L159.521 114.769L140.742 85.9915C140.742 85.9915 139.307 87.0479 135.564 88.1193C131.948 89.1535 121.279 89.4287 119.114 92.866Z" fill="black"/>
</g>
<g opacity="0.2">
<path d="M155.146 68.8944L170.949 108.453L181.045 105.291L177.682 70.9776C177.682 70.9776 175.941 71.3868 172.087 70.8958C168.345 70.4196 159.276 66.8708 155.146 68.8944Z" fill="black"/>
</g>
<g opacity="0.3">
<path d="M197.287 60.6136L198.343 103.572L207.807 104.026L217.397 71.0519C217.211 71.037 214.741 70.6055 211.824 68.7455C208.551 66.6474 201.87 60.2714 197.287 60.6136Z" fill="black"/>
</g>
<g opacity="0.2">
<path d="M238.564 68.7307L222.858 108.334L231.406 112.418L253.02 85.7386C252.856 85.6493 250.81 83.9455 248.913 80.91C246.859 77.6141 243.348 70.0476 238.564 68.7307Z" fill="black"/>
</g>
<g opacity="0.2">
<path d="M275.451 93.439L246.197 123.928L252.714 132.715L281.299 113.639C281.299 113.639 280.101 111.734 279.417 108.073C278.732 104.368 278.635 97.6128 275.451 93.439Z" fill="black"/>
</g>
<g opacity="0.2">
<path d="M298.545 127.856L259.15 144.068L262.416 154.135L296.692 150.415C296.692 150.415 296.477 149.358 296.93 145.489C297.362 141.754 301.298 133.392 298.545 127.856Z" fill="black"/>
</g>
<g opacity="0.2">
<path d="M307.265 170.778L264.321 172.281L263.964 181.752L296.73 191.335C296.744 191.149 297.035 189.303 298.032 187.421C300.435 182.86 307.265 176.432 307.265 170.778Z" fill="black"/>
</g>
<g opacity="0.2">
<path d="M299.348 211.385L259.805 195.969L255.802 204.563L282.705 225.901C282.787 225.737 284.357 224.279 287.377 222.359C290.659 220.269 298.441 216.883 299.348 211.385Z" fill="black"/>
</g>
<g opacity="0.2">
<path d="M241.19 210.775L231.406 218.989C232.15 219.763 245.193 241.934 253.228 255.638C253.339 255.557 253.444 255.46 253.555 255.385C258.852 251.844 268.264 253.265 273.576 249.753L241.19 210.775Z" fill="black"/>
<path d="M223.2 226.31L208.588 231.295L215.507 270.965C215.961 270.808 216.422 270.675 216.883 270.585C223.773 269.224 232.857 275.22 239.196 272.594C240.066 272.23 240.855 271.716 241.592 271.099L223.2 226.31Z" fill="black"/>
<path d="M196.52 280.934L198.856 229.107L186.223 225.908L176.819 270.533C176.938 270.556 177.05 270.571 177.169 270.593C183.694 271.873 189.653 280.518 196.52 280.934Z" fill="black"/>
<path d="M164.751 220.306C164.751 220.306 148.056 242.671 139.329 254.716C139.738 254.917 140.132 255.14 140.504 255.393C146.241 259.232 148.406 269.923 154.856 272.594C155.154 272.713 155.459 272.817 155.764 272.899L179.088 228.75L164.751 220.306Z" fill="black"/>
<path d="M147.617 202.301L112.009 226.779C112.143 226.957 112.292 227.128 112.418 227.307C116.287 233.088 114.226 243.786 119.122 248.682C119.576 249.136 120.089 249.508 120.625 249.85C133.206 235.669 155.794 210.21 156.612 209.324L147.617 202.301Z" fill="black"/>
<path d="M139.455 184.824L97.3524 191.625C98.022 198.38 92.7024 206.906 95.2023 212.948C95.3585 213.32 95.5445 213.669 95.7454 214.012C110.477 206.676 141.263 191.416 142.543 191.334L139.455 184.824Z" fill="black"/>
<path d="M137.156 161.374L97.3599 149.886C97.3301 150.236 97.2855 150.578 97.2185 150.913C95.8942 157.602 86.8471 163.695 86.8471 170.77C86.8471 171.246 86.8918 171.715 86.9662 172.184H135.542L137.156 161.374Z" fill="black"/>
<path d="M95.3734 128.288C110.246 136.256 139.329 152.379 139.329 152.379L146.486 138.786L112.865 113.475C112.723 113.735 112.582 114.003 112.418 114.249C108.639 119.881 98.2601 122.083 95.3734 128.288Z" fill="black"/>
</g>
<path d="M307.198 170.778C307.198 170.778 307.175 170.621 307.153 170.309C307.116 169.997 307.123 169.52 306.96 168.925C306.729 167.712 306.044 165.964 304.728 163.94C303.448 161.887 301.513 159.588 299.497 156.679C298.515 155.213 297.488 153.562 296.945 151.583C296.402 149.596 296.506 147.357 296.93 145.102C297.34 142.833 298.017 140.497 298.612 138.019C299.155 135.557 299.75 132.863 299.2 130.126C298.909 128.771 298.262 127.484 297.355 126.361C296.432 125.245 295.271 124.307 294.044 123.422C291.574 121.666 288.739 120.268 286.016 118.437C284.662 117.522 283.323 116.495 282.222 115.193C281.106 113.891 280.384 112.27 279.893 110.588C278.933 107.203 278.725 103.587 277.996 99.9638C277.624 98.1633 277.125 96.3331 276.165 94.7112C275.228 93.0744 273.703 91.8096 271.925 91.0432C270.154 90.2546 268.205 89.8528 266.233 89.5255C264.261 89.1981 262.238 88.9675 260.214 88.6104C258.19 88.2458 256.122 87.7696 254.247 86.7355C252.365 85.7088 250.892 84.0571 249.664 82.2938C248.429 80.5156 247.365 78.611 246.234 76.7361C245.103 74.8612 243.913 72.9789 242.365 71.3719C240.825 69.7872 238.764 68.6414 236.495 68.4926C234.234 68.3215 231.949 68.753 229.695 69.2887C227.433 69.8318 225.172 70.494 222.821 70.9329C220.492 71.3868 217.992 71.5505 215.634 70.799C213.312 69.9955 211.266 68.5819 209.287 67.1311C207.308 65.6729 205.374 64.1179 203.246 62.8308C201.133 61.5808 198.722 60.5467 196.215 60.822L195.746 60.8592C195.59 60.8889 195.441 60.9261 195.293 60.9559C194.988 61.0303 194.683 61.0824 194.377 61.1716C193.79 61.3874 193.18 61.566 192.622 61.8561C191.468 62.3695 190.39 63.0614 189.326 63.7682C187.205 65.2116 185.211 66.8707 183.039 68.3438C181.968 69.0952 180.814 69.7574 179.616 70.3228C178.404 70.8734 177.079 71.2008 175.74 71.3049C173.047 71.4388 170.398 70.8288 167.802 70.174C165.198 69.5193 162.594 68.7753 159.915 68.5149C158.576 68.4033 157.222 68.4628 155.92 68.7828C154.611 69.0952 153.45 69.8392 152.423 70.7023C150.37 72.4953 148.934 74.9059 147.513 77.2718C146.092 79.6526 144.738 82.1376 142.848 84.2728C141.896 85.3219 140.795 86.2816 139.5 86.9289C138.205 87.5613 136.836 87.9854 135.438 88.3128C132.64 88.9228 129.783 89.1907 126.971 89.6966C124.188 90.2025 121.287 90.9912 119.226 92.9925C118.229 94.0118 117.537 95.2915 117.024 96.6307C116.503 97.9773 116.205 99.4058 115.938 100.834C115.417 103.706 115.179 106.652 114.479 109.547C114.144 110.997 113.653 112.426 112.895 113.735C112.136 115.045 111.094 116.176 109.911 117.106C107.56 118.995 104.889 120.394 102.33 121.956C101.058 122.745 99.8002 123.563 98.6395 124.508C97.5012 125.468 96.467 126.569 95.7528 127.871C95.0311 129.166 94.7038 130.661 94.7186 132.157C94.7112 133.66 94.9418 135.162 95.2394 136.643C95.8718 139.619 96.8093 142.543 97.3152 145.601C97.5756 147.126 97.6723 148.703 97.4714 150.258C97.2706 151.821 96.6679 153.301 95.9165 154.67C94.369 157.393 92.3453 159.774 90.5523 162.304C89.6446 163.561 88.8113 164.878 88.1491 166.277C87.4944 167.668 87.0331 169.171 87.0257 170.711C87.0331 172.251 87.487 173.754 88.1343 175.145C88.789 176.544 89.6223 177.861 90.5299 179.118C92.323 181.655 94.3466 184.036 95.9016 186.751C96.653 188.113 97.2631 189.601 97.464 191.163C97.6723 192.718 97.5831 194.296 97.3152 195.821C96.8167 198.879 95.8718 201.81 95.2394 204.786C94.9344 206.274 94.7112 207.777 94.7112 209.28C94.6963 210.783 95.0237 212.271 95.7379 213.573C96.4447 214.875 97.4789 215.983 98.6172 216.943C99.7779 217.888 101.035 218.714 102.307 219.502C104.859 221.065 107.538 222.463 109.889 224.353C111.064 225.283 112.121 226.414 112.872 227.723C113.631 229.033 114.13 230.469 114.457 231.912C115.156 234.814 115.394 237.76 115.915 240.632C116.176 242.068 116.481 243.496 117.001 244.835C117.515 246.175 118.207 247.454 119.196 248.474C121.257 250.475 124.159 251.271 126.941 251.777C129.761 252.29 132.618 252.551 135.415 253.161C136.807 253.488 138.183 253.912 139.478 254.545C140.772 255.192 141.873 256.152 142.826 257.201C144.715 259.336 146.07 261.821 147.491 264.209C148.919 266.575 150.355 268.986 152.401 270.779C153.428 271.642 154.588 272.386 155.898 272.698C157.2 273.026 158.554 273.078 159.893 272.966C162.579 272.706 165.183 271.962 167.779 271.307C170.376 270.652 173.025 270.042 175.718 270.176C177.057 270.28 178.381 270.608 179.594 271.158C180.792 271.724 181.945 272.386 183.017 273.137C185.189 274.61 187.183 276.269 189.303 277.713C190.367 278.42 191.446 279.112 192.599 279.625C193.165 279.923 193.767 280.094 194.355 280.309C194.653 280.391 194.965 280.451 195.27 280.525C195.426 280.555 195.575 280.6 195.724 280.622L196.193 280.659C198.7 280.942 201.111 279.9 203.224 278.65C205.344 277.363 207.278 275.808 209.265 274.35C211.244 272.899 213.29 271.493 215.611 270.689C217.97 269.938 220.47 270.102 222.798 270.556C225.142 270.995 227.411 271.657 229.673 272.2C231.927 272.735 234.219 273.167 236.473 272.996C238.742 272.84 240.796 271.701 242.336 270.109C243.876 268.51 245.066 266.62 246.205 264.745C247.335 262.863 248.399 260.958 249.634 259.187C250.869 257.424 252.343 255.772 254.225 254.746C256.1 253.711 258.168 253.235 260.192 252.871C262.223 252.514 264.239 252.283 266.211 251.956C268.182 251.628 270.124 251.219 271.902 250.43C273.68 249.664 275.198 248.399 276.136 246.762C277.095 245.141 277.594 243.31 277.966 241.51C278.695 237.894 278.903 234.271 279.863 230.893C280.347 229.211 281.076 227.59 282.192 226.295C283.293 224.993 284.64 223.966 285.986 223.051C288.702 221.221 291.544 219.822 294.007 218.066C295.234 217.188 296.387 216.244 297.317 215.128C298.232 214.004 298.872 212.717 299.162 211.363C299.482 210.009 299.4 208.625 299.274 207.308C299.14 205.984 298.842 204.704 298.575 203.469C297.979 200.992 297.31 198.655 296.893 196.386C296.469 194.132 296.365 191.892 296.908 189.906C297.459 187.919 298.478 186.268 299.46 184.81C301.476 181.901 303.418 179.609 304.69 177.548C306.007 175.517 306.684 173.776 306.922 172.563C307.093 171.968 307.079 171.492 307.116 171.179C307.183 170.934 307.198 170.778 307.198 170.778C307.198 170.778 307.19 170.934 307.168 171.246C307.138 171.559 307.153 172.035 306.989 172.638C306.766 173.858 306.097 175.621 304.787 177.66C303.515 179.728 301.588 182.034 299.587 184.943C298.612 186.409 297.6 188.053 297.064 190.01C296.536 191.967 296.64 194.184 297.072 196.423C297.488 198.678 298.165 201.014 298.768 203.491C299.043 204.734 299.348 206.014 299.482 207.353C299.609 208.685 299.691 210.083 299.371 211.467C299.081 212.851 298.418 214.175 297.496 215.321C296.558 216.459 295.39 217.412 294.155 218.297C291.67 220.068 288.836 221.474 286.135 223.297C284.796 224.212 283.471 225.224 282.385 226.503C281.299 227.776 280.585 229.36 280.109 231.027C279.164 234.375 278.955 237.991 278.234 241.629C277.862 243.444 277.363 245.297 276.381 246.963C275.421 248.645 273.844 249.962 272.036 250.743C270.228 251.546 268.264 251.963 266.285 252.29C264.306 252.618 262.282 252.848 260.266 253.213C258.257 253.577 256.211 254.054 254.389 255.065C252.558 256.062 251.122 257.677 249.902 259.425C248.682 261.181 247.626 263.086 246.487 264.968C245.356 266.85 244.158 268.755 242.581 270.392C241.019 272.014 238.861 273.212 236.533 273.368C234.211 273.546 231.897 273.1 229.628 272.572C227.359 272.029 225.097 271.367 222.769 270.935C220.462 270.489 218.022 270.34 215.738 271.061C213.476 271.843 211.452 273.234 209.481 274.685C207.509 276.143 205.567 277.698 203.417 279.007C202.867 279.305 202.338 279.655 201.751 279.9C201.46 280.034 201.178 280.175 200.887 280.294L199.987 280.614C198.774 280.986 197.48 281.232 196.185 281.061L195.702 281.024C195.546 281.001 195.389 280.957 195.226 280.927C194.913 280.853 194.593 280.793 194.281 280.704C193.678 280.481 193.053 280.302 192.48 279.997C191.297 279.469 190.211 278.769 189.132 278.055C186.997 276.597 184.996 274.938 182.845 273.479C181.782 272.735 180.651 272.088 179.475 271.53C178.285 270.995 177.02 270.682 175.718 270.578C173.099 270.451 170.48 271.047 167.891 271.701C165.294 272.349 162.683 273.107 159.945 273.368C158.576 273.479 157.177 273.427 155.823 273.093C154.454 272.765 153.242 271.984 152.178 271.099C150.065 269.254 148.621 266.813 147.186 264.44C145.764 262.052 144.41 259.582 142.558 257.491C141.62 256.464 140.564 255.549 139.314 254.917C138.064 254.307 136.71 253.89 135.341 253.563C132.573 252.96 129.724 252.692 126.882 252.179C125.468 251.903 124.04 251.613 122.678 251.07C121.317 250.542 120.007 249.813 118.943 248.771C117.902 247.7 117.18 246.376 116.659 244.999C116.124 243.623 115.826 242.172 115.558 240.729C115.03 237.834 114.792 234.888 114.1 232.031C113.772 230.603 113.281 229.204 112.552 227.939C111.823 226.682 110.811 225.588 109.651 224.673C107.344 222.821 104.681 221.422 102.107 219.852C100.827 219.056 99.5547 218.23 98.3717 217.263C97.2111 216.281 96.1397 215.142 95.3957 213.781C94.6517 212.427 94.302 210.85 94.3243 209.309C94.3243 207.762 94.555 206.237 94.86 204.734C95.4924 201.736 96.4373 198.804 96.9283 195.791C97.1887 194.288 97.278 192.748 97.0697 191.245C96.8688 189.742 96.2885 188.314 95.5519 186.975C94.0267 184.304 92.0105 181.923 90.2026 179.371C89.2949 178.099 88.4393 176.774 87.7697 175.338C87.1001 173.91 86.6314 172.348 86.6239 170.741C86.6388 169.126 87.115 167.571 87.7846 166.143C88.4542 164.714 89.3098 163.382 90.2175 162.11C92.0254 159.566 94.0416 157.185 95.5594 154.514C96.2959 153.175 96.8763 151.739 97.0697 150.236C97.2631 148.733 97.1739 147.2 96.9209 145.697C96.4224 142.684 95.485 139.753 94.8451 136.755C94.5401 135.252 94.3094 133.727 94.3169 132.179C94.302 130.639 94.6442 129.069 95.4031 127.715C96.1471 126.353 97.2185 125.215 98.3791 124.241C99.5621 123.273 100.834 122.447 102.114 121.651C104.681 120.082 107.344 118.683 109.651 116.83C110.811 115.915 111.816 114.821 112.545 113.564C113.274 112.299 113.758 110.901 114.085 109.472C114.769 106.615 115.015 103.669 115.543 100.782C115.811 99.3389 116.116 97.8881 116.644 96.5117C117.165 95.1353 117.887 93.8109 118.928 92.7396C119.992 91.698 121.309 90.9688 122.671 90.4406C124.032 89.9049 125.461 89.6073 126.874 89.3395C129.716 88.8261 132.566 88.5657 135.326 87.9556C136.703 87.6357 138.049 87.2116 139.299 86.6016C140.549 85.9766 141.606 85.054 142.543 84.0273C144.396 81.9367 145.742 79.4666 147.163 77.0858C148.599 74.7124 150.035 72.2796 152.155 70.427C153.219 69.5342 154.432 68.7605 155.801 68.4331C157.155 68.0983 158.554 68.0388 159.923 68.1578C162.661 68.4256 165.272 69.1771 167.869 69.8244C170.458 70.4791 173.077 71.0743 175.696 70.9478C176.998 70.8511 178.262 70.5312 179.453 70.0029C180.628 69.4449 181.759 68.7976 182.823 68.0536C184.973 66.5954 186.975 64.9363 189.11 63.478C190.189 62.7638 191.275 62.0644 192.458 61.5362C193.031 61.2386 193.656 61.0526 194.258 60.8294C194.571 60.7401 194.891 60.6806 195.203 60.6062C195.36 60.5764 195.516 60.5318 195.679 60.502L196.163 60.4648C197.45 60.2937 198.752 60.5467 199.965 60.9113L200.865 61.2312C201.163 61.3502 201.438 61.499 201.728 61.6255C202.316 61.871 202.844 62.2207 203.395 62.5183C205.545 63.8277 207.479 65.3827 209.458 66.8409C211.43 68.2917 213.454 69.6756 215.715 70.4642C217.992 71.1859 220.432 71.0445 222.739 70.5907C225.06 70.1592 227.322 69.497 229.598 68.9539C231.868 68.4182 234.181 67.9792 236.503 68.1504C238.839 68.2992 240.989 69.497 242.559 71.1189C244.136 72.7557 245.327 74.6604 246.465 76.5352C247.596 78.4176 248.652 80.3222 249.872 82.078C251.093 83.8264 252.529 85.4409 254.359 86.4379C256.182 87.4497 258.228 87.9259 260.236 88.2904C262.253 88.6476 264.269 88.8857 266.255 89.213C268.234 89.5404 270.199 89.957 272.006 90.7605C273.814 91.5417 275.399 92.8586 276.359 94.5326C277.341 96.1992 277.847 98.0517 278.211 99.8671C278.941 103.505 279.141 107.121 280.086 110.469C280.57 112.128 281.269 113.72 282.363 114.993C283.442 116.272 284.766 117.292 286.105 118.199C288.806 120.022 291.641 121.428 294.126 123.199C295.361 124.084 296.529 125.037 297.466 126.175C298.396 127.321 299.051 128.645 299.348 130.021C299.668 131.405 299.579 132.804 299.46 134.136C299.326 135.475 299.021 136.755 298.746 137.997C298.151 140.482 297.466 142.811 297.049 145.065C296.618 147.312 296.514 149.522 297.042 151.478C297.578 153.435 298.59 155.087 299.564 156.545C301.566 159.454 303.5 161.76 304.765 163.829C306.074 165.867 306.744 167.631 306.967 168.851C307.131 169.453 307.108 169.93 307.146 170.242C307.198 170.614 307.198 170.778 307.198 170.778Z" fill="#263238"/>
<path d="M176.358 273.018C176.462 273.048 173.717 284.178 170.227 297.883C166.738 311.595 163.821 322.68 163.717 322.658C163.613 322.628 166.358 311.498 169.848 297.793C173.345 284.081 176.254 272.988 176.358 273.018Z" fill="#263238"/>
<path d="M197.026 238.318C234.328 238.318 264.566 208.079 264.566 170.778C264.566 133.476 234.328 103.237 197.026 103.237C159.725 103.237 129.486 133.476 129.486 170.778C129.486 208.079 159.725 238.318 197.026 238.318Z" fill="white"/>
<path d="M155.436 147.372C154.506 148.302 149.38 157.616 148.919 165.295C148.45 172.98 149.559 216.125 149.559 216.125L149.76 218.982C161.917 233.199 206.11 254.359 245.914 218.907L248.146 192.369L241.577 136.189L218.758 130.602L213.409 121.927L177.749 130.274L174.572 137.789L155.436 147.372Z" fill="#455A64"/>
<path d="M210.939 99.3537C212.509 93.5208 214.056 87.6357 214.599 81.6168C215.142 75.5978 214.637 69.378 212.248 63.8277C211.884 62.987 208.871 57.3698 207.963 57.5112C207.316 57.6079 209.265 62.8903 208.967 63.4706C206.103 69.0283 205.582 75.5532 206.408 81.7507C207.219 87.9482 208.804 93.4761 210.939 99.3537Z" fill="#263238"/>
<path d="M210.344 76.2897C210.054 61.1344 200.999 48.6724 185.851 49.3792L184.452 49.528C170.413 51.0086 159.856 63.0242 160.198 77.1379C160.518 90.2695 161.046 104.777 161.865 111.756C163.568 126.205 178.27 126.926 178.27 126.926C178.3 126.926 178.947 136.427 178.947 136.427L185.159 143.175L213.96 125.334L210.344 76.2897Z" fill="#FFBF9D"/>
<path d="M178.285 127.038C178.285 127.038 187.458 126.614 196.528 119.486C196.528 119.486 193.492 132.588 178.917 132.804L178.285 127.038Z" fill="#FF9A6C"/>
<path d="M168.531 88.9154C168.605 90.0091 169.595 90.8498 170.741 90.7903C171.886 90.7308 172.749 89.8008 172.675 88.6996C172.601 87.606 171.611 86.7652 170.465 86.8248C169.32 86.8843 168.449 87.8217 168.531 88.9154Z" fill="#263238"/>
<path d="M163.933 82.8146C164.216 83.0602 165.659 81.7358 167.884 81.5052C170.101 81.2448 171.857 82.2194 172.065 81.9218C172.169 81.7879 171.857 81.3266 171.09 80.8877C170.339 80.4487 169.089 80.0693 167.705 80.2255C166.321 80.3818 165.213 81.0142 164.595 81.6019C163.97 82.1971 163.792 82.703 163.933 82.8146Z" fill="#263238"/>
<path d="M188.165 87.2489C188.239 88.3426 189.229 89.1833 190.375 89.1238C191.52 89.0642 192.384 88.1343 192.309 87.0331C192.235 85.9395 191.245 85.0987 190.099 85.1582C188.954 85.2178 188.091 86.1552 188.165 87.2489Z" fill="#263238"/>
<path d="M185.799 81.416C186.082 81.6615 187.525 80.3372 189.75 80.1065C191.967 79.8461 193.715 80.8208 193.931 80.5232C194.035 80.3892 193.73 79.928 192.956 79.489C192.205 79.05 190.955 78.6706 189.571 78.8268C188.187 78.9831 187.079 79.6155 186.461 80.2032C185.844 80.7984 185.665 81.3118 185.799 81.416Z" fill="#263238"/>
<path d="M179.624 99.3389C179.624 99.2124 178.218 99.1157 175.949 99.0711C175.376 99.0711 174.825 99.019 174.691 98.6395C174.513 98.2452 174.684 97.6054 174.892 96.9135C175.279 95.485 175.688 93.9821 176.112 92.4123C177.794 86.0139 178.947 80.7761 178.694 80.7091C178.434 80.6422 176.864 85.7758 175.182 92.1742C174.78 93.7515 174.394 95.2543 174.036 96.6903C173.888 97.3599 173.598 98.1262 173.977 98.952C174.178 99.3612 174.624 99.6216 174.996 99.6811C175.368 99.7555 175.688 99.7258 175.971 99.7109C178.233 99.5993 179.631 99.4654 179.624 99.3389Z" fill="#263238"/>
<path d="M186.327 100.187C185.963 100.202 186.216 102.62 184.326 104.547C182.444 106.481 179.847 106.481 179.862 106.824C179.847 106.98 180.487 107.233 181.573 107.144C182.645 107.069 184.162 106.563 185.316 105.38C186.461 104.197 186.856 102.739 186.833 101.742C186.826 100.723 186.491 100.157 186.327 100.187Z" fill="#263238"/>
<path d="M184.973 72.3838C185.256 72.9641 187.443 72.4433 190.085 72.4805C192.726 72.4656 194.913 73.0087 195.196 72.4284C195.322 72.1531 194.898 71.6249 193.983 71.1264C193.075 70.6279 191.677 70.2187 190.092 70.2113C188.507 70.2038 187.101 70.6056 186.193 71.0892C185.278 71.5802 184.847 72.1085 184.973 72.3838Z" fill="#263238"/>
<path d="M164.074 75.33C164.521 75.7912 165.994 75.1068 167.832 74.891C169.662 74.6083 171.269 74.8687 171.574 74.3032C171.7 74.028 171.403 73.5518 170.674 73.1426C169.952 72.7408 168.791 72.4656 167.526 72.6367C166.262 72.8078 165.22 73.3807 164.632 73.9684C164.03 74.5562 163.873 75.0993 164.074 75.33Z" fill="#263238"/>
<path d="M210.292 87.1298C210.53 86.9958 219.919 83.1419 220.648 93.0669C221.377 102.992 211.266 101.675 211.222 101.385C211.184 101.102 210.292 87.1298 210.292 87.1298Z" fill="#FFBF9D"/>
<path d="M213.982 97.4045C214.026 97.3673 214.16 97.5161 214.465 97.6277C214.763 97.7393 215.254 97.7914 215.76 97.5607C216.779 97.0994 217.538 95.3733 217.456 93.5803C217.412 92.6726 217.166 91.8319 216.794 91.14C216.437 90.4332 215.931 89.9645 215.395 89.9049C214.86 89.8231 214.51 90.1653 214.413 90.4555C214.302 90.7457 214.376 90.9391 214.324 90.954C214.302 90.9837 214.101 90.8052 214.146 90.3885C214.175 90.1877 214.272 89.9421 214.488 89.7413C214.711 89.5329 215.053 89.4065 215.425 89.4213C216.192 89.4213 216.936 90.0686 217.345 90.8275C217.799 91.5864 218.104 92.5313 218.148 93.5505C218.23 95.5519 217.345 97.5012 215.939 98.022C215.254 98.2526 214.659 98.0889 214.339 97.8732C214.019 97.6425 213.952 97.4193 213.982 97.4045Z" fill="#FF9A6C"/>
<path d="M165.57 60.2789C163.903 59.4977 168.39 53.9846 172.229 51.9386C178.024 48.8436 187.027 46.5967 192.629 47.802C199.377 49.2528 205.091 52.199 208.804 58.0097C212.516 63.8277 214.22 70.7693 214.473 77.6662C214.547 79.7717 214.473 81.9739 213.469 83.819C212.226 86.1031 209.652 87.6581 209.964 90.6787C210.076 91.7798 209.838 92.9182 209.131 93.7738C207.442 95.8198 205.099 94.1532 203.96 92.3974C201.527 88.6476 200.984 84.0199 200.508 79.5782C200.166 76.4237 199.831 73.1947 200.53 70.0922C200.91 68.4033 201.587 66.7889 201.877 65.0851C202.16 63.3814 201.989 61.4767 200.858 60.1747C200.672 59.9589 200.374 59.6985 200.002 59.4084C197.034 57.1243 193.046 56.6407 189.601 58.1138C184.14 60.45 174.78 64.0212 172.162 62.2802C168.397 59.7804 167.422 58.0543 167.422 58.0543L165.57 60.2789Z" fill="#263238"/>
<path d="M155.436 147.372C154.864 148.168 146.732 150.868 143.644 156.009C140.556 161.15 137.506 184.229 137.506 184.229L135.542 199.422C139.411 205.545 144.596 213.647 150.109 219.361L155.436 147.372Z" fill="#455A64"/>
<g opacity="0.3">
<path d="M216.541 169.654C216.883 172.749 217.233 175.882 218.297 178.813C219.361 181.737 221.228 184.49 223.959 186C225.097 186.632 226.392 187.049 227.344 187.934C228.371 188.887 228.884 190.271 229.814 191.32C230.893 192.54 232.455 193.217 233.988 193.767C238.534 195.382 243.02 196.148 247.841 195.977C247.99 194.385 247.998 188.537 248.146 186.945L216.541 169.654Z" fill="black"/>
</g>
<path d="M241.577 136.197C241.577 136.197 251.829 139.232 254.835 143.599C257.841 147.967 263.16 164.9 264.254 168.04C265.348 171.179 264.388 178.463 262.342 183.693C260.296 188.924 256.74 193.432 250.602 194.117C244.464 194.801 234.762 191.253 232.582 188.931C230.402 186.61 229.487 181.402 229.487 181.402C232.217 180.926 234.903 180.249 237.537 179.386" fill="#455A64"/>
<path d="M237.529 179.378C237.529 179.386 237.485 179.401 237.403 179.438C237.299 179.475 237.172 179.52 237.016 179.579C236.674 179.698 236.16 179.869 235.483 180.07C234.129 180.472 232.121 181.023 229.502 181.506L229.584 181.387C229.814 182.548 230.142 183.82 230.633 185.152C230.878 185.814 231.161 186.498 231.518 187.161C231.882 187.823 232.307 188.492 232.894 189.028C233.482 189.564 234.211 189.995 234.97 190.397C235.729 190.806 236.54 191.163 237.381 191.506C239.07 192.183 240.892 192.77 242.827 193.232C244.761 193.678 246.815 194.013 248.942 194.02C249.478 194.043 250.006 193.976 250.542 193.946C251.07 193.857 251.613 193.812 252.142 193.663C253.206 193.425 254.247 193.023 255.222 192.465C257.186 191.379 258.845 189.683 260.11 187.696C261.39 185.71 262.327 183.455 263.011 181.104C263.547 179.297 263.941 177.466 264.194 175.651C264.455 173.836 264.581 172.02 264.462 170.257C264.395 169.372 264.232 168.538 263.927 167.712C263.651 166.879 263.376 166.053 263.108 165.235C262.565 163.606 262.029 162.006 261.509 160.451C260.452 157.341 259.41 154.402 258.369 151.672C257.305 148.956 256.315 146.412 255.073 144.276C254.463 143.205 253.637 142.364 252.759 141.687C251.896 140.988 251.003 140.43 250.148 139.939C248.436 138.964 246.882 138.28 245.602 137.744C244.322 137.216 243.31 136.844 242.618 136.598C242.291 136.479 242.031 136.39 241.837 136.323C241.659 136.264 241.569 136.226 241.569 136.219C241.569 136.211 241.666 136.234 241.845 136.286C242.046 136.345 242.306 136.427 242.641 136.524C243.34 136.747 244.359 137.089 245.654 137.603C246.948 138.116 248.518 138.793 250.252 139.753C251.115 140.237 252.023 140.795 252.908 141.494C253.801 142.171 254.679 143.041 255.304 144.135C256.583 146.293 257.588 148.837 258.667 151.553C259.723 154.283 260.779 157.222 261.843 160.332C262.372 161.887 262.907 163.487 263.458 165.116C263.733 165.934 264.008 166.753 264.284 167.586C264.589 168.412 264.775 169.327 264.842 170.227C264.968 172.035 264.842 173.873 264.581 175.703C264.321 177.541 263.927 179.386 263.383 181.216C262.684 183.597 261.739 185.881 260.43 187.912C259.143 189.943 257.431 191.684 255.4 192.8C254.396 193.373 253.317 193.782 252.223 194.028C251.68 194.177 251.122 194.229 250.579 194.318C250.029 194.348 249.478 194.415 248.942 194.392C246.77 194.377 244.694 194.035 242.745 193.574C240.796 193.105 238.958 192.503 237.262 191.811C236.413 191.461 235.595 191.096 234.829 190.672C234.062 190.263 233.326 189.817 232.701 189.251C232.083 188.678 231.652 187.979 231.287 187.302C230.923 186.617 230.64 185.926 230.402 185.249C229.926 183.894 229.606 182.615 229.383 181.439L229.36 181.343L229.465 181.328C232.083 180.881 234.092 180.36 235.454 179.996C236.116 179.81 236.629 179.661 237.001 179.557C237.165 179.512 237.291 179.475 237.396 179.445C237.485 179.378 237.529 179.371 237.529 179.378Z" fill="#263238"/>
<path d="M256.345 173.895C256.271 173.91 256.033 172.63 255.177 170.741C254.336 168.858 252.826 166.366 250.549 164.171C249.419 163.07 248.161 162.237 246.956 161.612C246.643 161.47 246.346 161.336 246.048 161.21C245.758 161.076 245.446 161.016 245.163 160.92C244.59 160.711 244.032 160.659 243.519 160.577C243.392 160.555 243.266 160.54 243.147 160.518C243.028 160.518 242.909 160.518 242.79 160.518C242.559 160.518 242.343 160.518 242.135 160.518C241.726 160.496 241.376 160.57 241.086 160.607C240.513 160.689 240.193 160.726 240.186 160.697C240.178 160.674 240.491 160.585 241.063 160.458C241.354 160.391 241.703 160.295 242.12 160.302C242.336 160.295 242.559 160.28 242.79 160.272C242.909 160.265 243.035 160.265 243.154 160.258C243.281 160.272 243.407 160.287 243.541 160.302C244.069 160.369 244.65 160.406 245.245 160.607C245.542 160.697 245.862 160.756 246.167 160.89C246.472 161.024 246.785 161.158 247.105 161.292C248.355 161.917 249.657 162.765 250.81 163.888C253.131 166.128 254.634 168.687 255.423 170.629C255.624 171.113 255.802 171.559 255.914 171.961C256.033 172.362 256.152 172.697 256.196 172.987C256.315 173.568 256.368 173.888 256.345 173.895Z" fill="#263238"/>
<path d="M261.94 164.692C261.858 164.722 261.576 163.375 260.393 161.567C259.232 159.789 257.015 157.564 253.86 156.619C250.713 155.66 247.655 155.957 245.52 156.158C244.501 156.277 243.653 156.381 242.968 156.463C242.365 156.538 242.031 156.567 242.023 156.538C242.016 156.508 242.343 156.433 242.938 156.314C243.534 156.195 244.397 156.039 245.475 155.883C247.611 155.608 250.713 155.258 253.957 156.24C255.571 156.731 256.985 157.557 258.094 158.502C259.217 159.439 260.028 160.481 260.608 161.411C261.189 162.348 261.516 163.174 261.702 163.762C261.903 164.357 261.955 164.692 261.94 164.692Z" fill="#263238"/>
<path d="M254.21 153.688C254.18 153.814 251.509 152.951 248.117 153.108C244.716 153.227 242.12 154.291 242.083 154.164C242.068 154.12 242.685 153.8 243.764 153.457C244.836 153.115 246.376 152.788 248.102 152.713C249.828 152.646 251.383 152.855 252.484 153.115C253.578 153.375 254.217 153.643 254.21 153.688Z" fill="#263238"/>
<path d="M237.619 138.756C237.678 138.763 237.529 139.805 237.41 141.479C237.291 143.16 237.232 145.489 237.462 148.048C237.671 150.504 238.117 152.713 238.512 154.313L238.244 154.402C237.939 153.539 237.701 152.847 237.544 152.356C237.388 151.873 237.314 151.597 237.336 151.59C237.366 151.582 237.485 151.835 237.686 152.304C237.887 152.773 238.169 153.457 238.504 154.305L238.236 154.395C237.775 152.795 237.284 150.578 237.076 148.093C236.845 145.511 236.942 143.153 237.135 141.464C237.232 140.623 237.336 139.946 237.433 139.478C237.529 139.009 237.589 138.756 237.619 138.756Z" fill="#263238"/>
<path d="M223.118 119.672C223.118 119.672 217.799 119.672 217.129 126.071C216.616 130.981 217.129 135.75 217.129 137.9C217.129 140.051 216.184 147.699 216.184 147.699C216.184 147.699 212.553 150.92 212.613 154.789C212.672 158.68 215.44 159.863 215.44 159.863C215.44 159.863 213.751 163.546 216.973 166.931C216.973 166.931 215.425 170.495 216.697 172.898C217.68 174.758 219.889 175.376 219.889 175.376C219.889 175.376 218.319 178.887 222.091 180.368C224.323 181.238 227.619 181.045 227.619 181.045L231.592 180.971L235.089 182.905C235.089 182.905 241.078 180.293 241.235 176.759C241.391 173.225 241.391 173.225 241.391 173.225C241.391 173.225 239.702 167.393 239.546 165.547C239.389 163.702 240.93 159.253 240.007 157.252C239.084 155.258 235.863 154.082 236.168 151.292C236.473 148.502 235.863 146.962 234.479 145.43C233.095 143.897 226.987 140.824 226.987 140.824C226.987 140.824 225.417 136.368 225.417 133.295C225.425 130.215 228.497 120.84 223.118 119.672Z" fill="#FFBF9D"/>
<path d="M226.704 141.978C226.734 142.022 226.169 142.387 225.231 142.93C224.294 143.48 222.992 144.21 221.541 144.998C220.09 145.787 218.758 146.486 217.791 146.97C216.824 147.453 216.206 147.736 216.184 147.684C216.162 147.639 216.727 147.275 217.657 146.724C218.595 146.174 219.897 145.445 221.347 144.656C222.798 143.867 224.123 143.175 225.097 142.684C226.064 142.208 226.682 141.925 226.704 141.978Z" fill="#FF9A6C"/>
<path d="M230.201 154.001C230.216 154.023 230.052 154.172 229.74 154.417C229.427 154.67 228.959 155.005 228.356 155.392C227.158 156.173 225.41 157.125 223.371 157.907C221.325 158.688 219.391 159.142 217.977 159.365C217.27 159.476 216.697 159.543 216.296 159.566C215.894 159.588 215.678 159.595 215.671 159.566C215.663 159.506 216.534 159.387 217.925 159.097C219.316 158.807 221.214 158.316 223.23 157.549C225.246 156.776 226.987 155.875 228.215 155.161C229.435 154.447 230.164 153.948 230.201 154.001Z" fill="#FF9A6C"/>
<path d="M234.769 150.176C234.866 150.206 234.665 150.891 234.033 151.464C233.408 152.036 232.708 152.17 232.686 152.074C232.649 151.969 233.222 151.694 233.772 151.173C234.338 150.667 234.665 150.132 234.769 150.176Z" fill="#FF9A6C"/>
<path d="M232.574 164.536C232.589 164.58 231.749 164.922 230.35 165.354C228.951 165.785 226.98 166.276 224.77 166.634C222.56 166.991 220.537 167.14 219.071 167.169C217.605 167.206 216.697 167.14 216.697 167.095C216.697 167.035 217.598 166.998 219.056 166.894C220.507 166.79 222.516 166.604 224.71 166.247C226.905 165.89 228.862 165.443 230.275 165.086C231.689 164.729 232.56 164.483 232.574 164.536Z" fill="#FF9A6C"/>
<path d="M237.44 163.65C237.388 163.621 237.619 163.211 237.849 162.512C238.08 161.813 238.273 160.801 238.14 159.692C238.006 158.584 237.582 157.639 237.195 157.021C236.808 156.396 236.488 156.054 236.532 156.009C236.562 155.972 236.957 156.247 237.425 156.865C237.887 157.475 238.392 158.465 238.534 159.648C238.675 160.831 238.422 161.909 238.117 162.609C237.797 163.315 237.477 163.68 237.44 163.65Z" fill="#FF9A6C"/>
<path d="M232.85 175.309C232.857 175.353 232.143 175.554 230.96 175.755C229.777 175.956 228.118 176.127 226.28 176.12C224.442 176.112 222.791 175.934 221.608 175.725C220.425 175.525 219.711 175.316 219.718 175.272C219.733 175.212 220.462 175.324 221.645 175.458C222.828 175.591 224.465 175.725 226.28 175.733C228.096 175.733 229.732 175.614 230.923 175.48C232.106 175.353 232.842 175.249 232.85 175.309Z" fill="#FF9A6C"/>
<path d="M223.408 133.37C223.431 133.414 223.17 133.608 222.672 133.786C222.181 133.965 221.437 134.091 220.633 133.994C219.83 133.898 219.138 133.6 218.699 133.31C218.26 133.02 218.052 132.767 218.081 132.73C218.148 132.633 219.16 133.444 220.678 133.608C222.188 133.808 223.364 133.265 223.408 133.37Z" fill="#FF9A6C"/>
<path d="M238.541 164.104C238.564 164.104 238.608 164.305 238.623 164.677C238.638 165.049 238.586 165.592 238.437 166.247C238.296 166.901 238.05 167.653 237.812 168.479C237.589 169.305 237.373 170.242 237.537 171.187C237.663 172.124 238.37 172.891 238.482 173.85C238.608 174.788 238.236 175.584 237.894 176.149C237.537 176.722 237.187 177.131 236.934 177.399C236.681 177.667 236.525 177.808 236.51 177.786C236.451 177.742 237.024 177.131 237.663 176.008C237.961 175.45 238.266 174.706 238.132 173.895C238.043 173.084 237.329 172.325 237.157 171.246C236.979 170.19 237.232 169.208 237.477 168.375C237.738 167.534 238.006 166.805 238.177 166.172C238.549 164.922 238.474 164.104 238.541 164.104Z" fill="#FF9A6C"/>
<path d="M240.543 168.776C240.565 168.769 240.662 169.014 240.796 169.476C240.93 169.929 241.108 170.599 241.279 171.44C241.443 172.281 241.607 173.285 241.636 174.423C241.659 175.554 241.547 176.849 240.967 178.069C240.372 179.267 239.508 180.212 238.683 180.985C237.849 181.752 237.024 182.362 236.317 182.838C235.61 183.314 235.022 183.671 234.606 183.909C234.189 184.14 233.951 184.259 233.936 184.237C233.906 184.185 234.792 183.627 236.161 182.622C236.838 182.116 237.634 181.499 238.437 180.732C239.233 179.959 240.059 179.043 240.617 177.913C241.16 176.782 241.287 175.547 241.279 174.438C241.272 173.33 241.138 172.333 241.011 171.492C240.729 169.81 240.483 168.791 240.543 168.776Z" fill="#263238"/>
<path d="M184.408 144.009C184.393 144.031 184.088 143.8 183.545 143.361C182.957 142.878 182.198 142.245 181.29 141.494C180.814 141.092 180.294 140.653 179.743 140.192C179.468 139.961 179.185 139.716 178.865 139.56C178.545 139.403 178.188 139.359 177.868 139.522C177.228 139.857 176.797 140.683 176.246 141.367C175.718 142.082 175.167 142.818 174.609 143.577C173.709 144.782 172.846 145.936 172.05 147.007L171.566 147.647L171.723 146.858C172.243 144.165 172.973 141.918 173.575 140.37C173.873 139.597 174.141 138.987 174.334 138.577C174.528 138.168 174.647 137.952 174.661 137.96C174.684 137.967 174.602 138.198 174.446 138.622C174.289 139.046 174.059 139.664 173.791 140.445C173.255 142.015 172.578 144.254 172.087 146.925L171.76 146.784C172.556 145.712 173.412 144.552 174.304 143.346C174.87 142.595 175.42 141.858 175.949 141.144C176.216 140.787 176.477 140.437 176.737 140.095C177.005 139.753 177.303 139.403 177.719 139.202C178.143 138.987 178.657 139.061 179.021 139.254C179.393 139.448 179.683 139.708 179.959 139.946C180.494 140.423 181 140.869 181.469 141.286C182.347 142.074 183.076 142.736 183.642 143.242C184.147 143.718 184.423 143.994 184.408 144.009Z" fill="#263238"/>
<path d="M215.82 137.722C215.827 137.729 215.73 137.818 215.529 137.982C215.291 138.168 215.001 138.391 214.651 138.667C213.833 139.284 212.724 140.117 211.37 141.137C208.536 143.22 204.689 146.055 200.426 149.194L200.262 149.313L200.151 149.142C200.062 149.008 199.972 148.859 199.883 148.718C197.867 145.534 195.984 142.565 194.392 140.043L194.593 140.11C191.967 141.152 189.899 142.297 188.492 143.153C187.786 143.577 187.25 143.934 186.878 144.172C186.506 144.41 186.312 144.537 186.298 144.522C186.29 144.507 186.469 144.358 186.818 144.09C187.168 143.823 187.696 143.443 188.388 142.989C189.772 142.089 191.826 140.891 194.467 139.805L194.593 139.753L194.668 139.872C196.275 142.379 198.172 145.34 200.21 148.51C200.3 148.659 200.396 148.8 200.478 148.934L200.203 148.882C204.496 145.779 208.365 142.982 211.222 140.921C212.605 139.946 213.736 139.143 214.57 138.555C214.942 138.302 215.247 138.094 215.492 137.93C215.7 137.774 215.812 137.707 215.82 137.722Z" fill="#263238"/>
<path d="M149.046 167.311C149.06 167.311 149.075 167.489 149.083 167.839C149.09 168.218 149.105 168.724 149.127 169.342C149.15 170.696 149.187 172.578 149.232 174.877C149.321 179.55 149.507 186.008 149.752 193.142C149.998 200.277 150.139 206.743 150.154 211.415C150.162 213.751 150.154 215.648 150.132 216.958C150.117 217.583 150.109 218.081 150.102 218.461C150.087 218.803 150.08 218.989 150.065 218.989C150.05 218.989 150.035 218.81 150.028 218.461C150.02 218.081 150.005 217.575 149.983 216.958C149.961 215.604 149.923 213.729 149.879 211.423C149.79 206.75 149.604 200.292 149.358 193.157C149.112 186.022 148.971 179.564 148.956 174.885C148.949 172.549 148.956 170.651 148.979 169.342C148.993 168.717 149.001 168.218 149.008 167.839C149.023 167.489 149.038 167.311 149.046 167.311Z" fill="#263238"/>
<path d="M184.653 234.509C184.646 234.509 184.631 234.434 184.616 234.293C184.601 234.129 184.572 233.921 184.542 233.661C184.482 233.073 184.408 232.262 184.304 231.228C184.095 229.115 183.857 226.05 183.619 222.263C183.374 218.476 183.18 213.96 183.046 208.938C182.935 203.916 182.912 198.395 183.031 192.607C183.165 186.811 183.433 181.298 183.761 176.283C184.11 171.276 184.505 166.768 184.906 162.996C185.308 159.223 185.68 156.173 185.978 154.068C186.126 153.041 186.238 152.23 186.32 151.65C186.357 151.389 186.394 151.188 186.417 151.025C186.439 150.883 186.454 150.809 186.461 150.809C186.469 150.809 186.469 150.883 186.454 151.025C186.439 151.188 186.417 151.397 186.394 151.657C186.327 152.237 186.238 153.056 186.119 154.082C185.866 156.188 185.539 159.246 185.174 163.018C184.802 166.79 184.438 171.299 184.11 176.306C183.805 181.313 183.545 186.826 183.411 192.614C183.292 198.403 183.307 203.916 183.396 208.93C183.508 213.945 183.671 218.461 183.88 222.248C184.08 226.035 184.281 229.1 184.438 231.22C184.505 232.255 184.564 233.073 184.601 233.661C184.616 233.921 184.624 234.129 184.631 234.293C184.661 234.434 184.653 234.509 184.653 234.509Z" fill="#263238"/>
<path d="M162.482 112.731C162.482 112.731 162.222 112.917 161.694 113.259C161.165 113.601 160.384 114.107 159.365 114.769C158.346 115.432 157.163 116.376 155.719 117.426C155.005 117.961 154.298 118.608 153.502 119.256C153.108 119.583 152.706 119.925 152.289 120.275C151.88 120.632 151.486 121.034 151.062 121.428C147.677 124.575 143.838 128.801 140.304 134.344C139.872 135.043 139.426 135.75 138.979 136.472C138.51 137.186 138.153 137.975 137.722 138.734C137.32 139.515 136.866 140.281 136.479 141.1C136.107 141.925 135.72 142.759 135.334 143.607C135.148 144.031 134.932 144.455 134.761 144.894C134.59 145.333 134.426 145.779 134.255 146.226C133.92 147.126 133.555 148.026 133.228 148.949C132.678 150.839 131.986 152.736 131.569 154.767C130.535 158.77 129.969 163.085 129.739 167.586C129.478 172.087 129.746 176.804 130.52 181.603C132.09 191.178 135.862 201.148 142.283 210.009C148.621 218.9 157.579 226.63 168.33 231.711C179.066 236.823 191.625 239.032 204.169 237.738C216.727 236.436 228.497 231.488 237.924 224.264C240.297 222.478 242.485 220.492 244.575 218.461C245.081 217.932 245.58 217.412 246.085 216.883C246.591 216.363 247.082 215.834 247.551 215.276C248.027 214.733 248.496 214.183 248.965 213.64C249.411 213.074 249.85 212.509 250.297 211.951C253.831 207.45 256.621 202.547 258.83 197.554C261.032 192.555 262.491 187.384 263.383 182.295C263.845 179.75 264.098 177.206 264.269 174.699C264.351 173.449 264.343 172.199 264.388 170.964C264.366 169.729 264.299 168.509 264.254 167.288C264.232 166.678 264.209 166.076 264.18 165.473C264.142 164.87 264.046 164.283 263.979 163.687C263.837 162.504 263.696 161.329 263.555 160.161C263.369 159.008 263.101 157.869 262.885 156.746C262.654 155.622 262.461 154.492 262.111 153.42C261.799 152.334 261.494 151.263 261.181 150.199C261.047 149.663 260.854 149.15 260.653 148.636C260.46 148.123 260.266 147.617 260.08 147.111C259.686 146.107 259.358 145.08 258.919 144.12C258.473 143.16 258.027 142.216 257.588 141.278C253.994 133.823 249.381 127.797 244.754 123.147C240.104 118.482 235.431 115.216 231.488 112.813C230.484 112.24 229.539 111.689 228.646 111.183C228.207 110.916 227.761 110.707 227.322 110.499C226.89 110.291 226.474 110.097 226.072 109.904C225.268 109.517 224.524 109.167 223.847 108.84C223.178 108.498 222.516 108.304 221.958 108.073C220.827 107.634 219.964 107.3 219.368 107.069C218.788 106.838 218.491 106.712 218.491 106.712C218.491 106.712 218.796 106.816 219.383 107.032C219.978 107.255 220.849 107.575 221.987 107.999C222.553 108.23 223.215 108.416 223.892 108.75C224.576 109.07 225.32 109.42 226.131 109.8C226.533 109.986 226.957 110.186 227.389 110.387C227.828 110.588 228.282 110.796 228.721 111.064C229.613 111.57 230.566 112.113 231.577 112.686C235.536 115.082 240.238 118.333 244.917 122.998C249.575 127.648 254.225 133.682 257.848 141.167C258.287 142.104 258.733 143.056 259.187 144.016C259.634 144.976 259.961 146.01 260.363 147.014C260.556 147.52 260.75 148.034 260.943 148.547C261.144 149.06 261.337 149.574 261.471 150.117C261.784 151.181 262.089 152.26 262.409 153.346C262.758 154.425 262.959 155.556 263.197 156.686C263.421 157.817 263.689 158.956 263.875 160.116C264.016 161.284 264.165 162.467 264.306 163.658C264.373 164.253 264.47 164.848 264.507 165.451C264.529 166.053 264.559 166.663 264.581 167.274C264.626 168.494 264.693 169.721 264.723 170.964C264.685 172.206 264.685 173.456 264.604 174.714C264.44 177.228 264.187 179.788 263.726 182.347C262.833 187.466 261.367 192.659 259.165 197.696C256.955 202.718 254.15 207.65 250.602 212.174C250.155 212.739 249.709 213.305 249.262 213.87C248.786 214.413 248.317 214.964 247.841 215.514C247.373 216.072 246.882 216.608 246.368 217.129C245.862 217.657 245.356 218.185 244.85 218.714C242.745 220.752 240.55 222.754 238.162 224.554C228.691 231.83 216.854 236.8 204.221 238.11C191.61 239.419 178.977 237.195 168.181 232.046C157.363 226.927 148.368 219.153 142 210.21C135.557 201.297 131.77 191.268 130.207 181.648C129.434 176.826 129.173 172.095 129.441 167.564C129.679 163.04 130.26 158.71 131.301 154.692C131.725 152.654 132.425 150.749 132.983 148.86C133.317 147.93 133.675 147.029 134.017 146.129C134.188 145.683 134.359 145.236 134.53 144.79C134.709 144.351 134.917 143.927 135.11 143.503C135.497 142.655 135.884 141.814 136.264 140.988C136.65 140.17 137.112 139.396 137.521 138.615C137.952 137.848 138.317 137.06 138.786 136.345C139.24 135.624 139.686 134.91 140.118 134.218C143.681 128.667 147.55 124.441 150.958 121.309C151.382 120.915 151.783 120.513 152.193 120.156C152.617 119.806 153.019 119.464 153.42 119.137C154.216 118.489 154.938 117.85 155.652 117.314C157.103 116.28 158.293 115.342 159.328 114.688C160.354 114.04 161.143 113.542 161.679 113.207C162.207 112.887 162.482 112.731 162.482 112.731Z" fill="#263238"/>
</svg>
