<svg width="35" height="35" viewBox="0 0 35 35" fill="none" xmlns="http://www.w3.org/2000/svg">
    <path fill-rule="evenodd" clip-rule="evenodd" d="M33.9752 8.60348C34.2157 7.80208 33.9752 7.21313 32.8315 7.21313H29.0489C28.0869 7.21313 27.6436 7.72179 27.4034 8.28308C27.4034 8.28308 25.4795 12.9716 22.7545 16.0174C21.8732 16.8991 21.4725 17.1799 20.9911 17.1799C20.751 17.1799 20.4029 16.8991 20.4029 16.0981V8.60348C20.4029 7.64188 20.1236 7.21313 19.3222 7.21313H13.3774C12.7766 7.21313 12.4147 7.65955 12.4147 8.08292C12.4147 8.99458 13.7774 9.20511 13.918 11.7699V17.3401C13.918 18.5614 13.6975 18.7835 13.2165 18.7835C11.9345 18.7835 8.81491 14.0734 6.9647 8.68416C6.60204 7.6365 6.2386 7.21352 5.27201 7.21352H1.48937C0.408292 7.21313 0.192383 7.72179 0.192383 8.28269C0.192383 9.28463 1.47439 14.254 6.1633 20.8262C9.28899 25.3141 13.6928 27.7475 17.7006 27.7475C20.1048 27.7475 20.4025 27.207 20.4025 26.2761V22.8842C20.4025 21.8031 20.6304 21.5876 21.3918 21.5876C21.9527 21.5876 22.9143 21.8677 25.1587 24.0318C27.7235 26.5965 28.1461 27.7472 29.589 27.7472H33.3717C34.452 27.7472 34.9925 27.2066 34.681 26.1405C34.3394 25.0775 33.115 23.5354 31.4904 21.7079C30.6087 20.666 29.2859 19.5438 28.8852 18.9825C28.3239 18.2614 28.4845 17.941 28.8852 17.2994C28.8852 17.2994 33.4946 10.8075 33.9752 8.60348Z" fill="white"/>
</svg>